<?xml version="1.0" encoding="UTF-8" standalone="no" ?>
<!DOCTYPE svg PUBLIC "-//W3C//DTD SVG 1.1//EN" "http://www.w3.org/Graphics/SVG/1.1/DTD/svg11.dtd">
<svg xmlns="http://www.w3.org/2000/svg" xmlns:xlink="http://www.w3.org/1999/xlink" version="1.1" width="500" height="500" viewBox="0 0 500 500" xml:space="preserve">
<desc>Created with Fabric.js 3.6.3</desc>
<defs>
</defs>
<g transform="matrix(1 0 0 1 252.49999992326812 307.8764857657968)" style=""  ><path fill="#911146" opacity="1" d="M-190.16 19.85L-190.16 19.85Q-191.18 20.23-191.88 19.53Q-192.58 18.83-192.64 18.01L-192.64 18.01Q-192.96 12.28-191.88 1.63Q-190.80-9.02-190.80-13.60L-190.80-13.60Q-190.80-14.05-191.02-14.24Q-191.25-14.43-191.66-14.36Q-192.07-14.30-192.39-14.17Q-192.71-14.05-193.22-13.86Q-193.73-13.67-193.92-13.60L-193.92-13.60Q-194.30-13.54-196.49-12.55Q-198.69-11.57-199.77-12.08L-199.77-12.08Q-201.36-12.77-201.23-14.49Q-201.10-16.21-199.45-17.04L-199.45-17.04Q-196.02-18.75-192.99-19.58Q-189.97-20.41-187.46-20.47Q-184.95-20.53-181.80-20.53Q-178.65-20.53-175.03-20.66L-175.03-20.66Q-174.90-20.66-174.74-20.44Q-174.58-20.22-174.39-19.90Q-174.20-19.58-174.14-19.45L-174.14-19.45Q-173.69-18.12-174.52-17.00Q-175.35-15.89-176.87-15.38L-176.87-15.38Q-179.42-14.87-180.43-14.87Q-181.45-14.87-183.68-14.81L-183.68-14.81Q-185.97-3.62-186.48 16.74L-186.48 16.74Q-186.48 18.33-190.16 19.85Z"/><path fill="#911146" opacity="1" d="M-171.78 1.15L-171.78 1.15Q-171.59-0.31-171.88-2.73Q-172.17-5.14-172.10-7.21Q-172.04-9.28-171.21-10.80L-171.21-10.80Q-170.83-11.82-169.49-12.23Q-168.16-12.65-166.76-12.08L-166.76-12.08Q-165.93-11.57-165.93-9.47L-165.93-9.47Q-166.00-9.02-166.19-7.15Q-166.38-5.27-166.44-4.60Q-166.50-3.93-166.60-2.38Q-166.70-0.82-166.63 0.14Q-166.57 1.09-166.41 2.39Q-166.25 3.70-165.93 4.84L-165.93 4.84Q-163.96 1.34-161.26-0.66Q-158.55-2.66-155.37-1.26L-155.37-1.26Q-154.23 3.57-153.75 5.70Q-153.28 7.83-152.83 11.71Q-152.39 15.59-152.70 18.64L-152.70 18.64Q-152.77 19.79-154.58 20.27Q-156.39 20.74-157.22 19.92L-157.22 19.92Q-158.68 18.13-158.84 15.40Q-159.00 12.67-159.00 9.64Q-159.00 6.62-160.08 4.59L-160.08 4.59Q-164.02 8.53-167.01 14.89L-167.01 14.89Q-167.40 15.53-168.51 15.97Q-169.62 16.42-170.45 16.23L-170.45 16.23Q-170.58 16.16-170.99 16.07Q-171.40 15.97-171.72 15.91Q-172.04 15.85-172.29 15.65Q-172.55 15.46-172.55 15.21L-172.55 15.21Q-172.55 8.28-171.78 1.15Z"/><path fill="#911146" opacity="1" d="M-151.05 2.04L-151.05 2.04Q-151.18-2.73-148.06-5.65Q-144.94-8.58-140.30-7.94L-140.30-7.94Q-136.49-7.43-133.66-4.25Q-130.83-1.07-130.89 2.87L-130.89 2.87Q-131.46 4.65-136.14 7.42Q-140.81 10.18-141.45 10.82L-141.45 10.82Q-141.76 10.88-142.24 11.33Q-142.72 11.77-142.46 12.16L-142.46 12.16Q-141.70 13.56-140.56 14.13Q-139.41 14.70-137.98 14.45Q-136.55 14.19-135.37 13.75Q-134.20 13.30-132.61 12.47L-132.61 12.47Q-130.95 13.75-131.56 15.88Q-132.16 18.01-134.13 18.33L-134.13 18.33Q-134.26 18.33-135.53 18.55Q-136.80 18.77-137.12 18.80Q-137.44 18.83-138.52 18.93Q-139.60 19.03-140.17 18.93Q-140.75 18.83-141.57 18.68Q-142.40 18.52-143.16 18.20L-143.16 18.20Q-150.80 14.76-151.05 2.04ZM-144.12 5.29L-144.12 5.29Q-138.39 5.03-137.25 1.28L-137.25 1.28Q-136.23-0.95-138.90-2.12Q-141.57-3.30-143.67-2.22L-143.67-2.22Q-144.94-1.52-145.36 0.30Q-145.77 2.11-145.33 3.67Q-144.88 5.22-144.12 5.29Z"/><path fill="#911146" opacity="1" d=""/><path fill="#911146" opacity="1" d="M-107.87 19.85L-107.87 19.85Q-108.88 20.23-109.58 19.53Q-110.28 18.83-110.35 18.01L-110.35 18.01Q-110.66 12.28-109.58 1.63Q-108.50-9.02-108.50-13.60L-108.50-13.60Q-108.50-14.05-108.72-14.24Q-108.95-14.43-109.36-14.36Q-109.77-14.30-110.09-14.17Q-110.41-14.05-110.92-13.86Q-111.43-13.67-111.62-13.60L-111.62-13.60Q-112.00-13.54-114.19-12.55Q-116.39-11.57-117.47-12.08L-117.47-12.08Q-119.06-12.77-118.93-14.49Q-118.80-16.21-117.15-17.04L-117.15-17.04Q-113.72-18.75-110.70-19.58Q-107.67-20.41-105.16-20.47Q-102.65-20.53-99.50-20.53Q-96.35-20.53-92.73-20.66L-92.73-20.66Q-92.60-20.66-92.44-20.44Q-92.28-20.22-92.09-19.90Q-91.90-19.58-91.84-19.45L-91.84-19.45Q-91.39-18.12-92.22-17.00Q-93.05-15.89-94.57-15.38L-94.57-15.38Q-97.12-14.87-98.13-14.87Q-99.15-14.87-101.38-14.81L-101.38-14.81Q-103.67-3.62-104.18 16.74L-104.18 16.74Q-104.18 18.33-107.87 19.85Z"/><path fill="#911146" opacity="1" d="M-83.95 11.65L-83.95 11.65Q-87.13 9.74-88.47 6.18Q-89.80 2.62-88.72-1.07L-88.72-1.07Q-88.15-3.17-86.50-5.49Q-84.84-7.81-84.65-8.26L-84.65-8.26Q-83.38-10.68-80.80-10.42Q-78.23-10.17-76.26-8.00L-76.26-8.00Q-74.16-5.59-73.14-1.77L-73.14-1.77Q-71.42 4.65-77.53 11.08L-77.53 11.08Q-78.55 12.16-80.61 12.28Q-82.68 12.41-83.95 11.65ZM-81.92 5.35L-81.92 5.35Q-79.75 5.86-78.74 4.40Q-77.72 2.93-78.20 0.64Q-78.67-1.64-80.33-3.49L-80.33-3.49Q-81.03-4.25-82.74-2.28L-82.74-2.28Q-85.10 0.33-84.78 2.74L-84.78 2.74Q-84.52 4.78-81.92 5.35Z"/><path fill="#911146" opacity="1" d="M-71.17-1.90L-71.17-1.90Q-71.10-2.28-71.58-3.14Q-72.06-4.00-71.74-4.51L-71.74-4.51Q-70.91-5.21-70.85-7.27Q-70.79-9.34-69.71-10.04L-69.71-10.04Q-68.37-10.99-67.03-11.06Q-65.70-11.12-64.74-10.04L-64.74-10.04Q-64.24-9.53-64.17-8.26Q-64.11-6.99-63.85-6.86L-63.85-6.86Q-61.56-6.61-59.66-6.13Q-57.75-5.65-55.75-4.76Q-53.74-3.87-52.69-2.22Q-51.64-0.56-51.90 1.60L-51.90 1.60Q-52.15 4.02-53.26 5.64Q-54.38 7.26-56.19 8.12Q-58.00 8.98-59.69 9.45Q-61.37 9.93-63.70 10.44Q-66.02 10.95-67.29 11.39L-67.29 11.39Q-68.05 16.04-67.89 18.42Q-67.73 20.81-66.40 25.39L-66.40 25.39Q-66.40 25.58-66.14 25.93Q-65.89 26.28-65.54 26.75Q-65.19 27.23-65.00 27.55L-65.00 27.55Q-64.24 29.14-66.27 29.52Q-68.31 29.90-69.71 29.26L-69.71 29.26Q-70.02 29.14-70.34 28.92Q-70.66 28.69-70.88 28.50Q-71.10 28.31-71.30 27.93Q-71.49 27.55-71.61 27.33Q-71.74 27.10-71.90 26.59Q-72.06 26.08-72.12 25.83Q-72.19 25.58-72.28 25.00Q-72.38 24.43-72.38 24.21Q-72.38 23.99-72.47 23.35Q-72.57 22.71-72.57 22.59L-72.57 22.59Q-72.89 20.17-72.95 17.66Q-73.01 15.15-72.79 12.57Q-72.57 9.99-72.34 7.90Q-72.12 5.80-71.74 2.87Q-71.36-0.05-71.17-1.90ZM-64.43-1.58L-64.43-1.58Q-65.70-0.31-66.27 2.65Q-66.84 5.61-65.83 6.18L-65.83 6.18Q-63.85 7.07-61.09 5.61Q-58.32 4.14-57.94 1.15L-57.94 1.15Q-57.56-1.07-60.10-1.58L-60.10-1.58Q-61.25-2.09-62.49-2.15Q-63.73-2.22-64.43-1.58Z"/><path fill="#911146" opacity="1" d="M-49.29-1.90L-49.29-1.90Q-49.23-2.28-49.70-3.14Q-50.18-4.00-49.86-4.51L-49.86-4.51Q-49.04-5.21-48.97-7.27Q-48.91-9.34-47.83-10.04L-47.83-10.04Q-46.49-10.99-45.16-11.06Q-43.82-11.12-42.87-10.04L-42.87-10.04Q-42.36-9.53-42.29-8.26Q-42.23-6.99-41.98-6.86L-41.98-6.86Q-39.69-6.61-37.78-6.13Q-35.87-5.65-33.87-4.76Q-31.86-3.87-30.81-2.22Q-29.76-0.56-30.02 1.60L-30.02 1.60Q-30.27 4.02-31.39 5.64Q-32.50 7.26-34.31 8.12Q-36.12 8.98-37.81 9.45Q-39.50 9.93-41.82 10.44Q-44.14 10.95-45.41 11.39L-45.41 11.39Q-46.17 16.04-46.01 18.42Q-45.86 20.81-44.52 25.39L-44.52 25.39Q-44.52 25.58-44.27 25.93Q-44.01 26.28-43.66 26.75Q-43.31 27.23-43.12 27.55L-43.12 27.55Q-42.36 29.14-44.39 29.52Q-46.43 29.90-47.83 29.26L-47.83 29.26Q-48.15 29.14-48.46 28.92Q-48.78 28.69-49.00 28.50Q-49.23 28.31-49.42 27.93Q-49.61 27.55-49.74 27.33Q-49.86 27.10-50.02 26.59Q-50.18 26.08-50.24 25.83Q-50.31 25.58-50.40 25.00Q-50.50 24.43-50.50 24.21Q-50.50 23.99-50.59 23.35Q-50.69 22.71-50.69 22.59L-50.69 22.59Q-51.01 20.17-51.07 17.66Q-51.13 15.15-50.91 12.57Q-50.69 9.99-50.47 7.90Q-50.24 5.80-49.86 2.87Q-49.48-0.05-49.29-1.90ZM-42.55-1.58L-42.55-1.58Q-43.82-0.31-44.39 2.65Q-44.97 5.61-43.95 6.18L-43.95 6.18Q-41.98 7.07-39.21 5.61Q-36.44 4.14-36.06 1.15L-36.06 1.15Q-35.68-1.07-38.22-1.58L-38.22-1.58Q-39.37-2.09-40.61-2.15Q-41.85-2.22-42.55-1.58Z"/><path fill="#911146" opacity="1" d="M-28.56 2.04L-28.56 2.04Q-28.68-2.73-25.57-5.65Q-22.45-8.58-17.81-7.94L-17.81-7.94Q-13.99-7.43-11.16-4.25Q-8.33-1.07-8.40 2.87L-8.40 2.87Q-8.97 4.65-13.64 7.42Q-18.32 10.18-18.95 10.82L-18.95 10.82Q-19.27 10.88-19.75 11.33Q-20.22 11.77-19.97 12.16L-19.97 12.16Q-19.21 13.56-18.06 14.13Q-16.92 14.70-15.49 14.45Q-14.06 14.19-12.88 13.75Q-11.70 13.30-10.11 12.47L-10.11 12.47Q-8.46 13.75-9.06 15.88Q-9.67 18.01-11.64 18.33L-11.64 18.33Q-11.77 18.33-13.04 18.55Q-14.31 18.77-14.63 18.80Q-14.95 18.83-16.03 18.93Q-17.11 19.03-17.68 18.93Q-18.25 18.83-19.08 18.68Q-19.91 18.52-20.67 18.20L-20.67 18.20Q-28.30 14.76-28.56 2.04ZM-21.62 5.29L-21.62 5.29Q-15.90 5.03-14.76 1.28L-14.76 1.28Q-13.74-0.95-16.41-2.12Q-19.08-3.30-21.18-2.22L-21.18-2.22Q-22.45-1.52-22.86 0.30Q-23.28 2.11-22.83 3.67Q-22.39 5.22-21.62 5.29Z"/><path fill="#911146" opacity="1" d="M-5.53 0.26L-5.53 0.26Q-5.66-0.69-6.20-2.15Q-6.74-3.62-7.09-4.67Q-7.44-5.72-7.31-6.92Q-7.19-8.13-6.17-9.02L-6.17-9.02Q-3.82-11.06-1.56-9.09Q0.70-7.11 0.19-3.93L0.19-3.93Q1.40-4.13 2.61-5.11Q3.82-6.10 4.58-7.05Q5.34-8.00 6.65-8.58Q7.95-9.15 9.48-8.70L9.48-8.70Q10.11-8.45 10.30-8.35Q10.49-8.26 11.03-8.00Q11.58-7.75 11.70-7.56Q11.83-7.37 12.05-7.05Q12.27-6.73 12.15-6.35Q12.02-5.97 11.70-5.52L11.70-5.52Q10.49-3.81 7.28-1.17Q4.07 1.47 2.73 3.44L2.73 3.44Q2.23 4.14 2.13 5.73Q2.04 7.32 1.78 7.90L1.78 7.90Q0.57 9.74 2.42 12.03L2.42 12.03Q3.37 13.24 3.18 15.21Q2.99 17.18 1.78 18.39L1.78 18.39Q0.83 19.79-0.92 19.85Q-2.67 19.92-3.63 18.71L-3.63 18.71Q-4.71 18.01-4.58 15.85L-4.58 15.85Q-4.32 10.18-5.53 0.26Z"/><path fill="#911146" opacity="1" d=""/><path fill="#911146" opacity="1" d="M31.80-8.20L31.80-8.20Q32.12-9.21 33.04-13.51Q33.96-17.80 35.30-19.64L35.30-19.64Q35.81-20.41 37.43-20.66Q39.05-20.92 39.56-19.96L39.56-19.96Q40.77-17.42 41.79-14.33Q42.80-11.25 43.34-8.93Q43.88-6.61 44.77-2.82Q45.66 0.96 46.17 3.00L46.17 3.00Q46.17 3.44 47.03 3.89Q47.89 4.33 48.15 4.72L48.15 4.72Q48.78 5.80 48.15 6.43L48.15 6.43Q47.06 8.79 48.46 12.67Q49.86 16.54 49.61 18.20L49.61 18.20Q49.42 19.53 47.54 19.88Q45.66 20.23 44.71 19.03L44.71 19.03Q43.82 17.82 43.28 14.19Q42.74 10.57 41.02 9.55L41.02 9.55Q39.24 8.53 36.82 8.82Q34.41 9.10 32.69 10.44L32.69 10.44Q31.93 11.01 31.42 12.51Q30.91 14.00 30.69 15.43Q30.46 16.86 29.86 18.20Q29.26 19.53 28.27 19.82Q27.28 20.11 25.25 19.34L25.25 19.34Q24.87 17.56 25.22 15.65Q25.57 13.75 26.43 11.30Q27.28 8.85 27.54 7.58L27.54 7.58Q29.51-1.39 31.80-8.20ZM35.30-2.47L35.30-2.47Q35.17-1.64 34.73-0.40Q34.28 0.84 33.93 1.63Q33.58 2.43 33.52 3.32Q33.45 4.21 34.09 4.40L34.09 4.40Q35.17 5.16 37.46 5.03Q39.75 4.91 40.13 3.57L40.13 3.57Q40.39 2.62 40.39 1.50Q40.39 0.39 40.32-0.34Q40.26-1.07 39.75-2.47Q39.24-3.87 39.08-4.28Q38.92-4.70 38.13-6.38Q37.33-8.07 37.27-8.20L37.27-8.20Q35.81-6.41 35.30-2.47Z"/><path fill="#911146" opacity="1" d="M51.01 3.44L51.01 3.44Q52.02-2.60 56.29-6.35L56.29-6.35Q56.41-6.48 57.34-7.31Q58.26-8.13 58.51-8.35Q58.77-8.58 59.66-9.31Q60.55-10.04 60.93-10.29Q61.31-10.55 62.17-11.09Q63.03-11.63 63.54-11.79Q64.05-11.95 64.87-12.20Q65.70-12.46 66.30-12.46Q66.91-12.46 67.67-12.33Q68.43-12.20 69.13-11.88L69.13-11.88Q70.60-11.25 69.96-9.40L69.96-9.40Q69.39-7.69 68.15-6.76Q66.91-5.84 65.00-5.08Q63.09-4.32 62.01-3.55L62.01-3.55Q57.30 0.07 57.05 4.08L57.05 4.08Q56.79 7.64 58.38 9.99L58.38 9.99Q58.83 10.76 59.59 11.30Q60.36 11.84 60.93 12.06Q61.50 12.28 62.65 12.63Q63.79 12.98 64.24 13.17L64.24 13.17Q65.70 13.75 67.16 12.92Q68.62 12.09 70.09 10.95Q71.55 9.80 72.63 9.74L72.63 9.74Q73.59 9.68 73.94 10.25Q74.28 10.82 74.09 11.71Q73.90 12.60 73.62 13.33Q73.33 14.06 73.01 14.57L73.01 14.57Q69.26 20.30 59.02 17.37L59.02 17.37Q54.63 16.10 52.44 12.16Q50.24 8.21 51.01 3.44Z"/><path fill="#911146" opacity="1" d="M90.06 21.31L90.06 21.31Q89.55 21.00 89.01 20.01Q88.47 19.03 88.02 19.03L88.02 19.03Q87.13 18.90 85.32 18.64Q83.51 18.39 82.46 18.17Q81.41 17.94 80.01 17.50Q78.61 17.05 77.59 16.23Q76.57 15.40 75.87 14.19L75.87 14.19Q74.67 12.35 74.92 9.64Q75.18 6.94 76.45 5.29L76.45 5.29Q77.91 3.32 79.88 2.14Q81.85 0.96 83.67 0.58Q85.48 0.20 87.07 0.17Q88.66 0.14 89.68 0.26L89.68 0.26L90.69 0.33Q91.20-0.31 91.20-1.90Q91.20-3.49 90.25-3.68L90.25-3.68Q89.29-4.13 87.67-3.87Q86.05-3.62 85.38-3.43Q84.72-3.23 83.16-2.57Q81.60-1.90 80.77-1.64L80.77-1.64Q79.12-1.07 78.36-3.46Q77.59-5.84 78.23-6.48L78.23-6.48Q80.64-8.13 83.95-8.96Q87.26-9.79 90.53-8.99Q93.81-8.20 95.15-5.40L95.15-5.40Q96.04-3.55 96.13-1.29Q96.23 0.96 95.81 2.74Q95.40 4.52 94.86 7.04Q94.32 9.55 94.19 11.33L94.19 11.33Q93.68 19.34 92.35 21.06L92.35 21.06Q91.39 22.14 90.06 21.31ZM88.91 13.62L88.91 13.62Q89.10 12.73 89.49 11.39Q89.87 10.06 90.09 9.23Q90.31 8.40 90.28 7.23Q90.25 6.05 89.74 4.84L89.74 4.84Q88.72 5.22 86.66 5.57Q84.59 5.92 83.22 6.21Q81.85 6.50 80.71 7.61Q79.56 8.72 79.50 10.63L79.50 10.63Q79.50 11.90 81.82 12.92Q84.14 13.94 86.24 14.00Q88.34 14.06 88.91 13.62Z"/><path fill="#911146" opacity="1" d="M96.80 5.73L96.80 5.73Q96.80 2.17 99.22-0.05Q101.63-2.28 105.83-4.22Q110.03-6.16 111.49-7.37L111.49-7.37Q112.32-8.07 112.64-10.68Q112.95-13.28 113.34-14.11L113.34-14.11Q114.03-15.32 115.28-16.02Q116.52-16.72 117.60-16.27L117.60-16.27Q119.76-15.19 119.44-13.79L119.44-13.79Q114.67-0.82 117.91 18.01L117.91 18.01Q117.91 18.45 117.02 18.99Q116.13 19.53 115.43 19.53L115.43 19.53Q114.23 19.66 113.53 18.74Q112.83 17.82 112.29 16.74Q111.75 15.65 111.17 15.53L111.17 15.53Q110.60 15.53 109.36 15.59Q108.12 15.65 107.42 15.65Q106.72 15.65 105.70 15.43Q104.69 15.21 103.86 14.64L103.86 14.64Q103.80 14.57 102.71 13.87Q101.63 13.17 101.41 13.02Q101.19 12.86 100.30 12.16Q99.41 11.46 99.12 11.11Q98.83 10.76 98.23 10.06Q97.63 9.36 97.44 8.79Q97.24 8.21 97.02 7.39Q96.80 6.56 96.80 5.73ZM103.22 4.84L103.22 4.84Q103.60 7.26 105.86 8.94Q108.12 10.63 110.54 9.74L110.54 9.74Q110.22 7.64 110.70 3.98Q111.17 0.33 111.17-0.95L111.17-0.95Q108.12-0.95 105.45 0.61Q102.78 2.17 103.22 4.84Z"/><path fill="#911146" opacity="1" d="M120.97 2.04L120.97 2.04Q120.84-2.73 123.96-5.65Q127.07-8.58 131.72-7.94L131.72-7.94Q135.53-7.43 138.36-4.25Q141.19-1.07 141.13 2.87L141.13 2.87Q140.56 4.65 135.88 7.42Q131.21 10.18 130.57 10.82L130.57 10.82Q130.25 10.88 129.78 11.33Q129.30 11.77 129.55 12.16L129.55 12.16Q130.32 13.56 131.46 14.13Q132.61 14.70 134.04 14.45Q135.47 14.19 136.64 13.75Q137.82 13.30 139.41 12.47L139.41 12.47Q141.06 13.75 140.46 15.88Q139.86 18.01 137.88 18.33L137.88 18.33Q137.76 18.33 136.49 18.55Q135.21 18.77 134.90 18.80Q134.58 18.83 133.50 18.93Q132.42 19.03 131.84 18.93Q131.27 18.83 130.44 18.68Q129.62 18.52 128.85 18.20L128.85 18.20Q121.22 14.76 120.97 2.04ZM127.90 5.29L127.90 5.29Q133.62 5.03 134.77 1.28L134.77 1.28Q135.79-0.95 133.11-2.12Q130.44-3.30 128.34-2.22L128.34-2.22Q127.07-1.52 126.66 0.30Q126.25 2.11 126.69 3.67Q127.14 5.22 127.90 5.29Z"/><path fill="#911146" opacity="1" d="M142.65 1.15L142.65 1.15Q142.21-2.54 143.58-4.98Q144.94-7.43 148.38-6.41L148.38-6.41Q149.65-6.03 150.00-4.98Q150.35-3.93 150.03-2.69Q149.71-1.45 149.68-0.12Q149.65 1.22 150.22 2.11L150.22 2.11Q151.18 1.22 152.19-0.47Q153.21-2.15 153.88-3.49Q154.55-4.82 155.66-6.16Q156.77-7.50 157.98-7.72Q159.19-7.94 161.29-7.37L161.29-7.37Q162.24-6.41 162.56-6.16L162.56-6.16Q162.82-5.14 163.07-2.63Q163.32-0.12 163.83 1.15L163.83 1.15Q164.34 0.64 165.20-0.40Q166.06-1.45 166.66-2.15Q167.27-2.85 168.16-3.74Q169.05-4.63 169.88-5.11Q170.70-5.59 171.66-6.00Q172.61-6.41 173.66-6.35Q174.71-6.29 175.85-5.84L175.85-5.84Q176.55-5.40 176.81-4.63Q177.06-3.87 177.06-2.66Q177.06-1.45 177.13-1.07L177.13-1.07Q178.97 12.47 175.54 21.38L175.54 21.38Q175.09 22.97 173.12 23.29Q171.15 23.60 169.49 22.59L169.49 22.59Q169.30 22.59 169.18 22.24Q169.05 21.89 169.05 21.38Q169.05 20.87 169.18 20.42L169.18 20.42Q172.10 12.47 170.45 1.47L170.45 1.47Q170.45 0.58 169.49 1.41L169.49 1.41Q169.05 1.73 168.86 2.11L168.86 2.11Q165.68 7.39 162.88 15.02L162.88 15.02Q162.05 16.67 159.79 17.34Q157.54 18.01 156.27 16.29L156.27 16.29Q155.31 14.32 156.01 9.87Q156.71 5.41 155.95 3.06L155.95 3.06Q154.87 4.91 152.86 9.45Q150.86 14.00 149.33 16.29L149.33 16.29Q148.32 17.69 146.25 17.69Q144.18 17.69 143.61 16.29L143.61 16.29Q142.59 13.75 142.72 8.94Q142.85 4.14 142.65 1.15Z"/><path fill="#911146" opacity="1" d="M184.25-5.21L184.25-5.21Q184.25-5.46 184.12-6.35Q183.99-7.24 183.99-7.65Q183.99-8.07 184.12-8.67Q184.25-9.28 184.57-9.59L184.57-9.59Q185.52-11.06 187.49-11.12Q189.46-11.18 190.23-9.59L190.23-9.59Q191.12-7.81 191.05-4.47Q190.99-1.14 191.18 1.09L191.18 1.09Q191.25 1.34 191.37 1.44Q191.50 1.54 191.66 1.47Q191.82 1.41 191.94 1.31Q192.07 1.22 192.23 1.03Q192.39 0.84 192.45 0.77L192.45 0.77Q192.77 0.07 193.76-2.22Q194.74-4.51 195.28-5.56Q195.82-6.61 196.94-8.04Q198.05-9.47 199.39-10.23L199.39-10.23Q200.28-10.55 201.48-10.61Q202.69-10.68 203.42-9.85Q204.16-9.02 203.46-7.69L203.46-7.69Q202.69-6.22 200.91-3.14Q199.13-0.05 198.15 1.82Q197.16 3.70 196.17 6.59Q195.19 9.49 195.00 12.09L195.00 12.09Q194.74 15.40 192.68 20.07Q190.61 24.75 188.26 27.74L188.26 27.74Q186.48 29.90 183.23 29.96Q179.99 30.03 178.78 27.74L178.78 27.74Q176.55 23.29 179.10 21.76L179.10 21.76Q180.24 21.06 181.58 21.92Q182.91 22.78 183.17 24.24L183.17 24.24Q184.50 23.22 185.27 22.49Q186.03 21.76 186.51 20.74Q186.98 19.72 187.11 19.22Q187.24 18.71 187.56 17.02Q187.87 15.34 188.07 14.32L188.07 14.32Q188.45 12.35 187.05 9.20Q185.65 6.05 185.52 4.91L185.52 4.91Q185.33 3.19 184.89-0.15Q184.44-3.49 184.25-5.21Z"/></g><g transform="matrix(1.1726850411618475 0 0 1.1726850411618475 260.4401860512035 196.94737445994596)"  >
<g style=""   >
		<g transform="matrix(1.1204384654154556 0 0 1.1204384654154556 -10.091012139927798 11.67006888483489)"  >
<circle style="stroke: none; stroke-width: 0; stroke-dasharray: none; stroke-linecap: butt; stroke-dashoffset: 0; stroke-linejoin: miter; stroke-miterlimit: 4; fill: rgb(0,76,242); fill-rule: evenodd; opacity: 0.8;"  cx="0" cy="0" r="47.0059" />
</g>
		<g transform="matrix(0.7023644111559573 0 0 0.7023644111559573 20.99094185883972 -10.340111964735698)"  >
<circle style="stroke: none; stroke-width: 0; stroke-dasharray: none; stroke-linecap: butt; stroke-dashoffset: 0; stroke-linejoin: miter; stroke-miterlimit: 4; fill: rgb(251,165,54); fill-rule: evenodd; opacity: 0.8;"  cx="0" cy="0" r="47.0059" />
</g>
		<g transform="matrix(0.1640206609377625 0 0 0.1640206609377625 0.9140782848575064 -56.627348560332905)"  >
<circle style="stroke: none; stroke-width: 0; stroke-dasharray: none; stroke-linecap: butt; stroke-dashoffset: 0; stroke-linejoin: miter; stroke-miterlimit: 4; fill: rgb(255,83,98); fill-rule: evenodd; opacity: 0.7;"  cx="0" cy="0" r="47.0059" />
</g>
		<g transform="matrix(0.8863169950301366 0 0 0.8863169950301366 -25.328172179880866 -1.6932552024043588)"  >
<circle style="stroke: none; stroke-width: 0; stroke-dasharray: none; stroke-linecap: butt; stroke-dashoffset: 0; stroke-linejoin: miter; stroke-miterlimit: 4; fill: rgb(99,25,195); fill-rule: evenodd; opacity: 0.8;"  cx="0" cy="0" r="47.0059" />
</g>
		<g transform="matrix(0.6470430043256643 0 0 0.6470430043256643 13.674042016607682 31.322016071951435)"  >
<circle style="stroke: none; stroke-width: 0; stroke-dasharray: none; stroke-linecap: butt; stroke-dashoffset: 0; stroke-linejoin: miter; stroke-miterlimit: 4; fill: rgb(255,83,98); fill-rule: evenodd; opacity: 0.8;"  cx="0" cy="0" r="47.0059" />
</g>
		<g transform="matrix(0.07846229053274655 0 0 -0.07846229053274655 -76.90763257612397 11.670068884834874)"  >
<circle style="stroke: none; stroke-width: 0; stroke-dasharray: none; stroke-linecap: butt; stroke-dashoffset: 0; stroke-linejoin: miter; stroke-miterlimit: 4; fill: rgb(99,25,195); fill-rule: evenodd; opacity: 0.7;"  cx="0" cy="0" r="47.0059" />
</g>
		<g transform="matrix(0.08973911094761094 0 0 0.08973911094761093 55.15345252129921 21.98044018813328)"  >
<circle style="stroke: none; stroke-width: 0; stroke-dasharray: none; stroke-linecap: butt; stroke-dashoffset: 0; stroke-linejoin: miter; stroke-miterlimit: 4; fill: rgb(255,83,98); fill-rule: evenodd; opacity: 0.7;"  cx="0" cy="0" r="47.0059" />
</g>
		<g transform="matrix(0.19007688396989056 0 0 0.19007688396989056 71.66108815847704 6.423524467187805)"  >
<circle style="stroke: none; stroke-width: 0; stroke-dasharray: none; stroke-linecap: butt; stroke-dashoffset: 0; stroke-linejoin: miter; stroke-miterlimit: 4; fill: rgb(0,76,242); fill-rule: evenodd; opacity: 0.7;"  cx="0" cy="0" r="47.0059" />
</g>
		<g transform="matrix(0.09873329263926167 0 0 0.09873329263926167 -61.34997199317024 55.69043058397597)"  >
<circle style="stroke: none; stroke-width: 0; stroke-dasharray: none; stroke-linecap: butt; stroke-dashoffset: 0; stroke-linejoin: miter; stroke-miterlimit: 4; fill: rgb(251,165,54); fill-rule: evenodd; opacity: 0.7;"  cx="0" cy="0" r="47.0059" />
</g>
</g>
</g>
<g transform="matrix(1 0 0 1 257.00100785191955 361.2323568645697)" style=""  ><path fill="#000000" opacity="1" d="M-138.52 10.89L-138.52 10.89Q-140.90 8.38-141.95 4.96Q-143.00 1.53-142.82-1.85Q-142.64-5.24-141.57-8.77L-141.57-8.77Q-141.16-10.03-139.82-10.66Q-138.48-11.28-137.13-10.66L-137.13-10.66Q-136.19-9.63-136.46-8.55L-136.46-8.55Q-137.67-5.77-137.98-2.57Q-138.30 0.63-137.29 3.66Q-136.28 6.68-133.91 8.12L-133.91 8.12Q-132.47 8.88-131.35 8.56Q-130.23 8.25-129.40 7.04Q-128.58 5.83-128.08 4.44Q-127.59 3.05-127.41 1.62L-127.41 1.62Q-127.01-0.93-127.05-2.32Q-127.10-3.71-127.37-6.24Q-127.64-8.77-127.64-10.16L-127.64-10.16Q-127.81-11.51-125.57-12.22L-125.57-12.22Q-125.08-12.40-123.96-12.63L-123.96-12.63L-123.69-12.72Q-123.69-12.36-123.24-12.18Q-122.80-12.00-122.80-11.82L-122.80-11.82Q-122.26-7.92-122.19-5.03Q-122.12-2.14-122.91 1.28Q-123.69 4.71-125.57 7.44L-125.57 7.44Q-127.01 9.50-129.34 10.96Q-131.67 12.42-134.15 12.62Q-136.64 12.82-138.52 10.89Z"/><path fill="#000000" opacity="1" d="M-120.38 4.35L-120.38 4.35Q-120.38 3.64-120.51 1.96Q-120.65 0.28-120.60-0.91Q-120.56-2.10-120.20-3.04L-120.20-3.04Q-119.80-4.07-118.38-4.00Q-116.97-3.94-116.66-2.82L-116.66-2.82Q-116.48-2.19-116.77-1.02Q-117.06 0.14-117.06 0.59L-117.06 0.59Q-116.97 0.68-116.84 0.95L-116.84 0.95Q-116.70 1.13-116.66 1.13L-116.66 1.13Q-116.57 0.99-116.23 0.41Q-115.90-0.17-115.79-0.37Q-115.67-0.58-115.34-1.07Q-115.00-1.56-114.82-1.74Q-114.64-1.92-114.31-2.30Q-113.97-2.68-113.70-2.82Q-113.43-2.95-113.05-3.15Q-112.67-3.35-112.31-3.38Q-111.96-3.40-111.53-3.38Q-111.10-3.35-110.61-3.22L-110.61-3.22Q-109.89-2.10-109.42-0.87Q-108.95 0.36-108.73 2.07Q-108.51 3.77-108.42 4.55Q-108.33 5.34-108.24 7.60Q-108.15 9.86-108.15 10.22L-108.15 10.22Q-107.70 12.19-108.73 12.51L-108.73 12.51Q-111.60 13.27-111.78 12.10L-111.78 12.10Q-112.04 10.40-112.18 6.73Q-112.31 3.05-112.72 1.13L-112.72 1.13Q-113.97 2.52-115.18 5.72Q-116.39 8.92-117.06 10.04L-117.06 10.04Q-117.60 10.94-118.70 10.98Q-119.80 11.03-120.20 10.04L-120.20 10.04Q-120.47 9.28-120.51 8.36Q-120.56 7.44-120.47 6.17Q-120.38 4.89-120.38 4.35Z"/><path fill="#000000" opacity="1" d="M-103.53-2.41L-103.53-2.41Q-103.49-3.53-103.73-5.15Q-103.98-6.76-104.20-7.99Q-104.43-9.22-104.36-10.66Q-104.29-12.09-103.76-13.16L-103.76-13.16Q-103.35-14.02-102.32-14.42Q-101.29-14.82-100.37-14.40Q-99.46-13.97-99.37-12.72L-99.37-12.72Q-99.32-12.49-99.46-11.80Q-99.59-11.10-99.59-10.92L-99.59-10.92Q-99.59-9.89-99.55-7.92Q-99.50-5.95-99.50-4.34Q-99.50-2.73-99.59-1.34L-99.59-1.34Q-99.68 0.28-99.48 3.30Q-99.28 6.32-99.43 8.65Q-99.59 10.98-100.49 12.95L-100.49 12.95Q-100.93 13.94-101.99 14.07Q-103.04 14.21-103.98 13.63L-103.98 13.63Q-104.47 13.31-104.68 12.57Q-104.88 11.83-104.65 11.16L-104.65 11.16Q-104.07 9.15-103.85 7.06Q-103.62 4.98-103.60 1.82Q-103.58-1.34-103.53-2.41Z"/><path fill="#000000" opacity="1" d=""/><path fill="#000000" opacity="1" d=""/><path fill="#000000" opacity="1" d=""/><path fill="#000000" opacity="1" d="M-71.37 2.43L-71.37 2.43Q-70.65-1.83-67.65-4.47L-67.65-4.47Q-67.56-4.56-66.91-5.15Q-66.26-5.73-66.08-5.88Q-65.90-6.04-65.27-6.56Q-64.65-7.07-64.38-7.25Q-64.11-7.43-63.50-7.81Q-62.90-8.19-62.54-8.30Q-62.18-8.42-61.60-8.60Q-61.02-8.77-60.59-8.77Q-60.17-8.77-59.63-8.68Q-59.09-8.60-58.60-8.37L-58.60-8.37Q-57.57-7.92-58.02-6.62L-58.02-6.62Q-58.42-5.41-59.29-4.76Q-60.17-4.12-61.51-3.58Q-62.85-3.04-63.62-2.50L-63.62-2.50Q-66.93 0.05-67.11 2.87L-67.11 2.87Q-67.29 5.38-66.17 7.04L-66.17 7.04Q-65.86 7.58-65.32 7.96Q-64.78 8.34-64.38 8.50Q-63.97 8.65-63.17 8.90Q-62.36 9.15-62.05 9.28L-62.05 9.28Q-61.02 9.68-59.99 9.10Q-58.96 8.52-57.93 7.71Q-56.90 6.91-56.13 6.86L-56.13 6.86Q-55.46 6.82-55.22 7.22Q-54.97 7.62-55.10 8.25Q-55.24 8.88-55.44 9.39Q-55.64 9.91-55.87 10.27L-55.87 10.27Q-58.51 14.30-65.72 12.24L-65.72 12.24Q-68.81 11.34-70.36 8.56Q-71.90 5.79-71.37 2.43Z"/><path fill="#000000" opacity="1" d="M-54.61-3.58L-54.61-3.58Q-54.52-4.79-54.77-6.89Q-55.01-9.00-55.08-10.21Q-55.15-11.42-54.61-13.25L-54.61-13.25Q-54.30-14.02-53.18-14.40Q-52.06-14.78-50.98-14.46L-50.98-14.46Q-50.40-13.88-50.40-13.48L-50.40-13.48Q-50.40-11.64-50.65-7.23Q-50.89-2.82-50.80-0.35L-50.80-0.35Q-50.71-0.17-50.51-0.13Q-50.31-0.08-50.04-0.13L-50.04-0.13L-49.77-0.17Q-49.46-0.40-48.50-1.18Q-47.53-1.96-47.04-2.28Q-46.55-2.59-45.72-2.95Q-44.89-3.31-44.11-3.20Q-43.32-3.08-42.52-2.59L-42.52-2.59Q-41.75-2.05-42.04-1.38Q-42.34-0.71-43.10-0.35L-43.10-0.35Q-43.41-0.13-45.18 0.86Q-46.95 1.84-47.76 2.65L-47.76 2.65Q-44.80 4.89-38.89 10.31L-38.89 10.31Q-38.08 11.34-39.47 12.33L-39.47 12.33Q-40.05 13.09-41.06 13.13Q-42.07 13.18-42.52 12.55L-42.52 12.55Q-43.50 11.56-44.62 10.60Q-45.74 9.64-47.35 8.34Q-48.97 7.04-49.59 6.50L-49.59 6.50Q-49.59 6.50-50.00 6.32L-50.00 6.32Q-50.31 6.32-50.18 6.91L-50.18 6.91Q-50.31 7.80-50.00 9.73Q-49.68 11.65-49.77 12.55L-49.77 12.55Q-49.86 13.36-50.65 13.76Q-51.43 14.16-52.24 14.07Q-53.04 13.98-53.22 13.54L-53.22 13.54Q-54.25 11.12-54.63 7.87Q-55.01 4.62-54.95 2.52Q-54.88 0.41-54.61-3.58Z"/><path fill="#000000" opacity="1" d=""/><path fill="#000000" opacity="1" d="M-26.12 16.81L-26.12 16.81Q-26.88 16.49-27.01 15.60Q-27.15 14.70-26.92 13.98L-26.92 13.98Q-26.75 12.82-25.42 8.72Q-24.10 4.62-24.33 2.74L-24.33 2.74Q-24.64 0.36-27.04-4.88Q-29.43-10.12-29.75-12.67L-29.75-12.67Q-29.88-13.70-28.47-14.35Q-27.06-15.00-26.34-14.33L-26.34-14.33Q-25.27-13.39-24.64-11.26Q-24.01-9.13-23.41-6.87Q-22.80-4.61-21.91-3.53L-21.91-3.53Q-21.19-4.47-20.05-8.44Q-18.91-12.40-17.43-13.48L-17.43-13.48Q-16.71-14.02-15.81-14.02Q-14.92-14.02-14.38-13.52Q-13.84-13.03-14.16-12.27L-14.16-12.27Q-17.83-3.17-19.26-0.08L-19.26-0.08Q-19.89 1.80-18.68 3.37L-18.68 3.37Q-18.28 3.77-18.86 5.20L-18.86 5.20Q-19.08 5.38-19.98 5.70Q-20.88 6.01-21.10 6.59L-21.10 6.59Q-22.85 14.61-23.25 16.00L-23.25 16.00Q-23.43 16.54-24.21 16.87Q-25.00 17.21-26.12 16.81Z"/><path fill="#000000" opacity="1" d="M-8.69 8.20L-8.69 8.20Q-10.93 6.86-11.87 4.35Q-12.81 1.84-12.05-0.76L-12.05-0.76Q-11.65-2.23-10.48-3.87Q-9.32-5.50-9.18-5.82L-9.18-5.82Q-8.29-7.52-6.47-7.34Q-4.66-7.16-3.27-5.64L-3.27-5.64Q-1.79-3.94-1.08-1.25L-1.08-1.25Q0.13 3.28-4.17 7.80L-4.17 7.80Q-4.88 8.56-6.34 8.65Q-7.80 8.74-8.69 8.20ZM-7.26 3.77L-7.26 3.77Q-5.73 4.13-5.02 3.10Q-4.30 2.07-4.64 0.45Q-4.97-1.16-6.14-2.46L-6.14-2.46Q-6.63-3.00-7.84-1.61L-7.84-1.61Q-9.50 0.23-9.27 1.93L-9.27 1.93Q-9.09 3.37-7.26 3.77Z"/><path fill="#000000" opacity="1" d="M-0.27-1.96L-0.27-1.96Q-0.27-2.19-0.25-3.11Q-0.22-4.03-0.18-4.41Q-0.13-4.79 0.11-5.35Q0.36-5.91 0.85-6.22L0.85-6.22Q2.02-6.76 3.34-6.38Q4.66-6.00 4.66-4.88L4.66-4.88Q4.66-3.89 4.57-2.10Q4.48-0.31 4.48 1.15Q4.48 2.60 4.66 3.90L4.66 3.90Q4.75 4.17 4.86 4.80Q4.97 5.43 5.08 5.88Q5.20 6.32 5.35 6.97Q5.51 7.62 5.69 7.96Q5.87 8.29 6.14 8.68Q6.41 9.06 6.68 9.01Q6.94 8.97 7.35 8.83L7.35 8.83Q10.26 6.86 10.93 2.94Q11.60-0.98 9.59-4.20L9.59-4.20Q9.18-4.83 8.96-5.46Q8.74-6.09 8.78-6.71Q8.83-7.34 9.36-7.56L9.36-7.56Q11.51-8.46 13.17-6.49Q14.83-4.52 14.96-2.19L14.96-2.19Q15.23 2.43 13.78 6.46Q12.32 10.49 8.92 11.97L8.92 11.97Q6.63 13.00 4.97 12.37Q3.32 11.74 2.24 10.24Q1.16 8.74 0.56 6.52Q-0.04 4.31-0.22 2.16Q-0.40 0.01-0.27-1.96Z"/><path fill="#000000" opacity="1" d="M16.98 0.19L16.98 0.19Q16.89-0.49 16.51-1.52Q16.13-2.55 15.88-3.29Q15.64-4.03 15.72-4.88Q15.81-5.73 16.53-6.36L16.53-6.36Q18.19-7.79 19.78-6.40Q21.37-5.01 21.01-2.77L21.01-2.77Q21.86-2.91 22.71-3.60Q23.56-4.29 24.10-4.97Q24.64-5.64 25.56-6.04Q26.48-6.44 27.55-6.13L27.55-6.13Q28.00-5.95 28.13-5.88Q28.27-5.82 28.65-5.64Q29.03-5.46 29.12-5.32Q29.21-5.19 29.37-4.97Q29.52-4.74 29.43-4.47Q29.34-4.20 29.12-3.89L29.12-3.89Q28.27-2.68 26.01-0.82Q23.74 1.04 22.80 2.43L22.80 2.43Q22.44 2.92 22.38 4.04Q22.31 5.16 22.13 5.56L22.13 5.56Q21.28 6.86 22.58 8.47L22.58 8.47Q23.25 9.32 23.12 10.71Q22.98 12.10 22.13 12.95L22.13 12.95Q21.46 13.94 20.23 13.98Q19.00 14.03 18.32 13.18L18.32 13.18Q17.56 12.68 17.65 11.16L17.65 11.16Q17.83 7.17 16.98 0.19Z"/><path fill="#000000" opacity="1" d=""/><path fill="#000000" opacity="1" d="M40.50-4.34L40.50-4.34Q39.24-9.27 39.47-12.54L39.47-12.54Q39.47-12.90 39.74-13.32Q40.01-13.75 40.28-13.75L40.28-13.75Q43.32-14.82 46.70-14.55Q50.09-14.28 52.95-12.72L52.95-12.72Q54.70-11.82 51.97-10.07L51.97-10.07Q50.49-9.40 48.00-10.43Q45.52-11.46 44.35-11.28L44.35-11.28Q44.26-9.80 44.22-8.95Q44.17-8.10 44.44-6.65Q44.71-5.19 44.91-4.34Q45.11-3.49 45.47-2.05Q45.83-0.62 46.01 0.19L46.01 0.19Q46.55 0.23 47.60 0.12Q48.65 0.01 49.57-0.06Q50.49-0.13 51.36-0.08Q52.24-0.04 52.75 0.41Q53.27 0.86 53.22 1.75L53.22 1.75Q53.18 2.69 51.86 2.92Q50.53 3.14 49.03 3.25Q47.53 3.37 47.22 4.04L47.22 4.04Q46.77 4.71 46.97 5.81Q47.17 6.91 47.53 7.67Q47.89 8.43 48.41 9.55Q48.92 10.67 49.10 11.43L49.10 11.43Q49.46 12.46 48.81 13.22Q48.16 13.98 47.22 14.03Q46.28 14.07 45.61 13.67L45.61 13.67Q44.35 12.42 43.68 9.08Q43.01 5.74 41.93 4.49L41.93 4.49Q41.71 4.26 41.46 4.33Q41.22 4.40 40.70 4.49Q40.19 4.58 39.87 4.49L39.87 4.49Q39.20 4.31 38.82 3.79Q38.44 3.28 38.84 2.60L38.84 2.60Q39.11 2.25 40.14 1.64Q41.17 1.04 41.31 0.59L41.31 0.59Q41.48 0.19 41.40-0.64Q41.31-1.47 41.19-1.88Q41.08-2.28 40.84-3.11Q40.59-3.94 40.50-4.34Z"/><path fill="#000000" opacity="1" d="M54.52-1.96L54.52-1.96Q54.52-2.19 54.54-3.11Q54.57-4.03 54.61-4.41Q54.66-4.79 54.90-5.35Q55.15-5.91 55.64-6.22L55.64-6.22Q56.81-6.76 58.13-6.38Q59.45-6.00 59.45-4.88L59.45-4.88Q59.45-3.89 59.36-2.10Q59.27-0.31 59.27 1.15Q59.27 2.60 59.45 3.90L59.45 3.90Q59.54 4.17 59.65 4.80Q59.76 5.43 59.88 5.88Q59.99 6.32 60.14 6.97Q60.30 7.62 60.48 7.96Q60.66 8.29 60.93 8.68Q61.20 9.06 61.47 9.01Q61.73 8.97 62.14 8.83L62.14 8.83Q65.05 6.86 65.72 2.94Q66.39-0.98 64.38-4.20L64.38-4.20Q63.97-4.83 63.75-5.46Q63.53-6.09 63.57-6.71Q63.62-7.34 64.15-7.56L64.15-7.56Q66.30-8.46 67.96-6.49Q69.62-4.52 69.75-2.19L69.75-2.19Q70.02 2.43 68.57 6.46Q67.11 10.49 63.71 11.97L63.71 11.97Q61.42 13.00 59.76 12.37Q58.11 11.74 57.03 10.24Q55.96 8.74 55.35 6.52Q54.75 4.31 54.57 2.16Q54.39 0.01 54.52-1.96Z"/><path fill="#000000" opacity="1" d="M77.32-5.95L77.32-5.95Q77.37-6.36 77.64-7.99Q77.91-9.63 78.00-10.52L78.00-10.52Q78.18-12.04 79.83-12.27Q81.49-12.49 82.75-11.60L82.75-11.60Q83.33-11.01 82.97-10.07L82.97-10.07Q81.22-6.27 81.22-0.93L81.22-0.93Q81.58-0.98 82.48-1.07L82.48-1.07Q86.46-1.61 87.32-0.89L87.32-0.89Q87.81-0.40 87.54 0.54L87.54 0.54Q87.40 0.99 87.09 1.33Q86.78 1.66 86.22 1.87Q85.66 2.07 85.23 2.20Q84.81 2.34 84.00 2.38Q83.19 2.43 82.81 2.45Q82.43 2.47 81.54 2.45Q80.64 2.43 80.46 2.43L80.46 2.43Q80.24 3.95 80.84 11.56Q81.45 19.18 81.36 20.39L81.36 20.39Q81.31 21.06 80.89 21.49Q80.46 21.91 79.79 21.91L79.79 21.91Q78.98 21.91 78.58 21.62Q78.18 21.33 77.91 20.48L77.91 20.48Q77.50 19.36 77.08 11.61Q76.65 3.86 75.94 2.56L75.94 2.56Q75.00 3.28 73.88 3.68Q72.76 4.08 71.66 3.86Q70.56 3.64 70.16 2.52L70.16 2.52Q69.98 2.07 70.36 1.48Q70.74 0.90 71.28 0.54L71.28 0.54Q71.86 0.23 73.85-0.20Q75.85-0.62 76.47-1.38L76.47-1.38Q76.88-1.88 77.01-2.61Q77.15-3.35 77.21-4.43Q77.28-5.50 77.32-5.95Z"/><path fill="#000000" opacity="1" d="M88.75-1.96L88.75-1.96Q88.75-2.19 88.77-3.11Q88.79-4.03 88.84-4.41Q88.88-4.79 89.13-5.35Q89.38-5.91 89.87-6.22L89.87-6.22Q91.03-6.76 92.36-6.38Q93.68-6.00 93.68-4.88L93.68-4.88Q93.68-3.89 93.59-2.10Q93.50-0.31 93.50 1.15Q93.50 2.60 93.68 3.90L93.68 3.90Q93.77 4.17 93.88 4.80Q93.99 5.43 94.10 5.88Q94.21 6.32 94.37 6.97Q94.53 7.62 94.71 7.96Q94.89 8.29 95.16 8.68Q95.42 9.06 95.69 9.01Q95.96 8.97 96.36 8.83L96.36 8.83Q99.28 6.86 99.95 2.94Q100.62-0.98 98.60-4.20L98.60-4.20Q98.20-4.83 97.98-5.46Q97.75-6.09 97.80-6.71Q97.84-7.34 98.38-7.56L98.38-7.56Q100.53-8.46 102.19-6.49Q103.85-4.52 103.98-2.19L103.98-2.19Q104.25 2.43 102.79 6.46Q101.34 10.49 97.93 11.97L97.93 11.97Q95.65 13.00 93.99 12.37Q92.33 11.74 91.26 10.24Q90.18 8.74 89.58 6.52Q88.97 4.31 88.79 2.16Q88.61 0.01 88.75-1.96Z"/><path fill="#000000" opacity="1" d="M106.00 0.19L106.00 0.19Q105.91-0.49 105.53-1.52Q105.15-2.55 104.90-3.29Q104.65-4.03 104.74-4.88Q104.83-5.73 105.55-6.36L105.55-6.36Q107.21-7.79 108.80-6.40Q110.39-5.01 110.03-2.77L110.03-2.77Q110.88-2.91 111.73-3.60Q112.58-4.29 113.12-4.97Q113.66-5.64 114.58-6.04Q115.49-6.44 116.57-6.13L116.57-6.13Q117.02-5.95 117.15-5.88Q117.29-5.82 117.67-5.64Q118.05-5.46 118.14-5.32Q118.23-5.19 118.38-4.97Q118.54-4.74 118.45-4.47Q118.36-4.20 118.14-3.89L118.14-3.89Q117.29-2.68 115.02-0.82Q112.76 1.04 111.82 2.43L111.82 2.43Q111.46 2.92 111.40 4.04Q111.33 5.16 111.15 5.56L111.15 5.56Q110.30 6.86 111.60 8.47L111.60 8.47Q112.27 9.32 112.13 10.71Q112.00 12.10 111.15 12.95L111.15 12.95Q110.48 13.94 109.24 13.98Q108.01 14.03 107.34 13.18L107.34 13.18Q106.58 12.68 106.67 11.16L106.67 11.16Q106.85 7.17 106.00 0.19Z"/><path fill="#000000" opacity="1" d="M119.44 1.44L119.44 1.44Q119.35-1.92 121.54-3.98Q123.74-6.04 127.01-5.59L127.01-5.59Q129.70-5.24 131.69-3.00Q133.68-0.76 133.64 2.02L133.64 2.02Q133.24 3.28 129.94 5.23Q126.65 7.17 126.20 7.62L126.20 7.62Q125.98 7.67 125.64 7.98Q125.31 8.29 125.48 8.56L125.48 8.56Q126.02 9.55 126.83 9.95Q127.64 10.36 128.64 10.18Q129.65 10.00 130.48 9.68Q131.31 9.37 132.43 8.79L132.43 8.79Q133.59 9.68 133.17 11.18Q132.74 12.68 131.35 12.91L131.35 12.91Q131.26 12.91 130.37 13.07Q129.47 13.22 129.25 13.24Q129.02 13.27 128.26 13.33Q127.50 13.40 127.10 13.33Q126.69 13.27 126.11 13.16Q125.53 13.04 124.99 12.82L124.99 12.82Q119.62 10.40 119.44 1.44ZM124.32 3.72L124.32 3.72Q128.35 3.55 129.16 0.90L129.16 0.90Q129.88-0.67 127.99-1.49Q126.11-2.32 124.63-1.56L124.63-1.56Q123.74-1.07 123.45 0.21Q123.16 1.48 123.47 2.58Q123.78 3.68 124.32 3.72Z"/><path fill="#000000" opacity="1" d="M138.16 8.70L138.16 8.70Q138.48 8.92 139.06 8.92L139.06 8.92Q138.97 9.55 139.19 10.62Q139.42 11.70 139.31 12.44Q139.19 13.18 138.39 13.67L138.39 13.67Q136.73 14.66 135.74 13.56Q134.76 12.46 134.31 10.49L134.31 10.49Q134.31 9.15 135.63 8.52Q136.95 7.89 138.16 8.70ZM137.54 6.64L137.54 6.64Q136.95 6.41 136.66 6.05Q136.37 5.70 136.35 5.20Q136.33 4.71 136.37 4.28Q136.42 3.86 136.55 3.23Q136.68 2.60 136.73 2.25L136.73 2.25Q138.03-7.56 140.00-13.34L140.00-13.34Q140.31-14.28 141.32-14.53Q142.33-14.78 143.14-14.33Q143.94-13.88 143.85-13.12L143.85-13.12Q143.58-9.67 141.93-3.15Q140.27 3.37 139.87 6.28L139.87 6.28Q139.87 7.58 137.54 6.64Z"/></g><g transform="matrix(-0.2573652139634057 0 0 0.2876023131896854 172.24999992326812 360.9823568645697)"  >
<path style="stroke: none; stroke-width: 0; stroke-dasharray: none; stroke-linecap: butt; stroke-dashoffset: 0; stroke-linejoin: miter; stroke-miterlimit: 4; fill: rgb(145,17,70); fill-rule: nonzero; opacity: 1;"  transform=" translate(-49.99917400000002, -49.99961999999999)" d="m 81.102 43.801 h -0.19922 l -0.003906 -10.602 c 0 -16.898 -13.699 -30.699 -30.699 -30.699 h -1.1992 c -13.602 0.5 -24.699 10.199 -28.199 22.801 c -1.1992 4.3008 2.1016 8.5 6.6016 8.5 c 3 0 5.5 -2.1016 6.3008 -4.8984 c 1.8984 -6.8008 7.6016 -12.102 15 -12.801 c 0.60156 0 1.1016 -0.10156 1.6016 -0.10156 c 9.5 0 17.199 7.6992 17.199 17.199 v 10.699 h -48.605 c -4.5 0 -8.1016 3.6016 -8.1016 8.1016 v 37.398 c 0 4.5 3.6016 8.1016 8.1016 8.1016 h 62.199 c 4.5 0 8.1016 -3.6016 8.1016 -8.1016 v -37.5 c 0 -4.3984 -3.5977 -8.0977 -8.0977 -8.0977 z m -25.102 36.301 c 0.19922 0.89844 -0.5 1.8008 -1.5 1.8008 h -9.1016 c -1 0 -1.6992 -0.89844 -1.5 -1.8008 l 1.6992 -8.6016 c -1.6992 -1.5 -2.6992 -3.6992 -2.3008 -6.1992 c 0.5 -2.8984 2.8984 -5.1992 5.8984 -5.6016 h 0.80078 c 3.6992 0 6.6992 3 6.6992 6.6992 c 0 2.1016 -1 4 -2.5 5.1992 z" stroke-linecap="round" />
</g>
<g transform="matrix(0.8077801745715353 0 0 0.8077801745715353 254 207)"  >
<path style="stroke: none; stroke-width: 0; stroke-dasharray: none; stroke-linecap: butt; stroke-dashoffset: 0; stroke-linejoin: miter; stroke-miterlimit: 4; fill: rgb(255,255,255); fill-rule: evenodd; opacity: 1;"  transform=" translate(-50.0005, -49.999700000000004)" d="m 10.582 58.09 l -1.7734 4.7383 c 0.56641 -0.15234 1.1641 -0.23438 1.7773 -0.23438 h 12.859 l -7.9375 -0.58203 c -1.4375 -0.10547 -2.75 -0.75781 -3.6953 -1.7773 c -0.55859 -0.60156 -0.98438 -1.3281 -1.2344 -2.1445 z m -5.582 -36.098 l 34.566 -14.887 l 34.566 14.891 l -34.566 14.891 z m 69.598 2.6562 l -2.625 1.1289 v 18.766 c -2.2617 0.58203 -3.9297 2.6328 -3.9297 5.0781 c 0 2.8945 2.3477 5.2422 5.2422 5.2422 c 2.8945 0 5.2422 -2.3477 5.2422 -5.2422 c 0 -2.4414 -1.668 -4.4922 -3.9297 -5.0781 v -19.898 z m -13.812 5.9492 l -21.219 9.1406 l -21.219 -9.1406 v 14.012 c 0 2.7578 2.2539 5.0117 5.0117 5.0117 h 32.418 c 2.7578 0 5.0117 -2.2539 5.0117 -5.0117 v -14.012 z m 29.047 62.297 l 5.168 -12.531 c 0 -2.8438 -2.3242 -5.168 -5.168 -5.168 s -5.168 2.3242 -5.168 5.168 z m 0 -70.902 c 2.8438 0 5.168 2.3242 5.168 5.168 v 6.5391 c -1.3672 -1.043 -3.1875 -1.6875 -5.168 -1.6875 s -3.8008 0.64062 -5.168 1.6875 v -6.5391 c 0 -2.8438 2.3242 -5.168 5.168 -5.168 z m 5.168 54.473 c -1.2227 -1.6172 -3.1289 -2.5781 -5.168 -2.5781 c -2.0352 0 -3.9414 0.96094 -5.168 2.5781 c 0 -12.652 0.10156 -25.34 0.10156 -37.973 c 0 -1.0078 0.53125 -1.9414 1.3867 -2.6328 c 0.92969 -0.75391 2.2305 -1.2188 3.6797 -1.2188 s 2.75 0.46875 3.6797 1.2188 c 0.85547 0.69141 1.3867 1.6289 1.3867 2.6328 c 0 12.633 0.10156 25.32 0.10156 37.973 z m -79.395 -30.516 l 0.23828 0.015625 c 0.64062 3.5625 3.7734 6.2812 7.5156 6.2812 h 32.418 c 2.4258 0 4.5938 -1.1406 5.9961 -2.918 l 3.6484 0.29297 c 0 4.3438 3.5234 7.8672 7.8672 7.8672 c 0.65625 0 1.2891 -0.082031 1.8984 -0.23047 c -0.10547 2.6523 0.57812 5.3047 2.0312 7.957 l -61.609 -4.5156 c -2.168 -0.16016 -3.9531 -1.9219 -3.9531 -4.2734 v -6.2031 c 0 -2.3516 1.7852 -4.4336 3.9531 -4.2734 z m 63.062 -2.0664 c -0.4375 -0.41016 -0.92188 -0.76953 -1.4453 -1.0742 v -6.6289 l 3.1758 0.16016 z m -9.3203 -8.1055 l -5.9375 -0.30469 v 9.1367 c 0 0.75781 -0.11328 1.4922 -0.32031 2.1836 l 2.7773 0.20312 c 0.62109 -1.7578 1.8555 -3.25 3.4805 -4.1914 v -7.0312 z m -53.625 3.5469 l -1.5352 4.1094 c 0.48828 -0.10156 1.0039 -0.14062 1.5352 -0.10938 z m 9.2109 33.266 h 12.402 v 20.301 l -6.1992 -4.5156 l -6.1992 4.5156 v -20.301 z m -14.344 -7.3789 c -2.3516 0 -4.2734 1.9219 -4.2734 4.2734 v 6.2031 c 0 2.3516 1.9219 4.2734 4.2734 4.2734 h 4.0039 v -14.754 h -4.0039 z m 6.6289 0 v 14.754 h 5.0898 v -10 h 17.652 v 10 h 37.254 c -2.9102 -4.918 -2.9766 -9.8359 0 -14.754 l -59.996 0.007812 z" stroke-linecap="round" />
</g>
<g transform="matrix(1 0 0 1 440.59751320232795 348.55860267520495)" style=""  ><path fill="#911146" opacity="1" d="M-6.57 6.07L-6.57 6.07Q-6.89 6.19-7.10 5.97Q-7.31 5.76-7.33 5.51L-7.33 5.51Q-7.43 3.76-7.10 0.50Q-6.77-2.76-6.77-4.16L-6.77-4.16Q-6.77-4.30-6.84-4.35Q-6.90-4.41-7.03-4.39Q-7.16-4.37-7.25-4.33Q-7.35-4.30-7.51-4.24Q-7.66-4.18-7.72-4.16L-7.72-4.16Q-7.84-4.14-8.51-3.84Q-9.18-3.54-9.51-3.69L-9.51-3.69Q-10.00-3.91-9.96-4.43Q-9.92-4.96-9.41-5.21L-9.41-5.21Q-8.36-5.74-7.44-5.99Q-6.52-6.24-5.75-6.26Q-4.98-6.28-4.02-6.28Q-3.05-6.28-1.95-6.32L-1.95-6.32Q-1.91-6.32-1.86-6.25Q-1.81-6.18-1.75-6.09Q-1.69-5.99-1.67-5.95L-1.67-5.95Q-1.54-5.54-1.79-5.20Q-2.04-4.86-2.51-4.70L-2.51-4.70Q-3.29-4.55-3.60-4.55Q-3.91-4.55-4.59-4.53L-4.59-4.53Q-5.29-1.11-5.45 5.12L-5.45 5.12Q-5.45 5.60-6.57 6.07Z"/><path fill="#911146" opacity="1" d="M9.22 6.11L9.22 6.11Q8.42 6.27 8.27 6.11L8.27 6.11Q7.70 5.00 7.47 3.48Q7.24 1.97 7.04 0.42Q6.85-1.13 6.38-2.21L6.38-2.21Q5.97-1.55 5.50-0.18Q5.04 1.19 4.77 1.75L4.77 1.75Q4.71 1.85 4.76 2.08Q4.80 2.32 4.77 2.41L4.77 2.41Q4.53 2.88 4.07 3.13Q3.62 3.39 3.15 3.17L3.15 3.17Q2.86 3.10 2.63 2.84Q2.39 2.59 2.39 2.32L2.39 2.32Q2.18 0.37 1.54 0.14L1.54 0.14Q1.32 0.06 1.29 0.30Q1.26 0.55 1.31 0.88Q1.36 1.21 1.26 1.46L1.26 1.46Q1.09 1.71 1.15 2.70Q1.21 3.68 1.17 3.93L1.17 3.93Q1.09 4.48 0.25 4.63Q-0.58 4.79-0.91 4.40L-0.91 4.40Q-1.28 4.01-1.33 3.43Q-1.38 2.84-1.24 2.34Q-1.11 1.83-0.90 1.11Q-0.70 0.39-0.64-0.04L-0.64-0.04Q-0.51-0.99-0.35-2.89Q-0.19-4.78-0.06-5.74L-0.06-5.74Q0.02-6.28 0.73-6.34Q1.44-6.40 1.63-6.01L1.63-6.01Q2.10-5.37 2.38-4.58Q2.66-3.79 2.92-2.71Q3.17-1.63 3.35-1.09L3.35-1.09L3.44-0.97Q3.56-0.85 3.62-0.80Q3.68-0.76 3.71-0.79L3.71-0.79Q3.99-1.18 4.26-1.83Q4.53-2.47 4.72-3.03Q4.90-3.60 5.19-4.18Q5.48-4.76 5.80-5.15Q6.11-5.54 6.62-5.72Q7.14-5.89 7.80-5.74L7.80-5.74Q8.42-3.93 8.97-0.26Q9.51 3.41 10.08 5.16L10.08 5.16Q10.19 5.49 9.91 5.76Q9.63 6.03 9.22 6.11Z"/></g></svg>