<?xml version="1.0" encoding="UTF-8" standalone="no" ?>
<!DOCTYPE svg PUBLIC "-//W3C//DTD SVG 1.1//EN" "http://www.w3.org/Graphics/SVG/1.1/DTD/svg11.dtd">
<svg xmlns="http://www.w3.org/2000/svg" xmlns:xlink="http://www.w3.org/1999/xlink" version="1.1" width="500" height="500" viewBox="0 0 500 500" xml:space="preserve">
<desc>Created with Fabric.js 3.6.3</desc>
<defs>
</defs>
<g transform="matrix(1.1726850411618475 0 0 1.1726850411618475 260.4401860512035 196.94737445994596)"  >
<g style=""   >
		<g transform="matrix(1.1204384654154556 0 0 1.1204384654154556 -10.091012139927798 11.67006888483489)"  >
<circle style="stroke: none; stroke-width: 0; stroke-dasharray: none; stroke-linecap: butt; stroke-dashoffset: 0; stroke-linejoin: miter; stroke-miterlimit: 4; fill: rgb(0,76,242); fill-rule: evenodd; opacity: 0.8;"  cx="0" cy="0" r="47.0059" />
</g>
		<g transform="matrix(0.7023644111559573 0 0 0.7023644111559573 20.99094185883972 -10.340111964735698)"  >
<circle style="stroke: none; stroke-width: 0; stroke-dasharray: none; stroke-linecap: butt; stroke-dashoffset: 0; stroke-linejoin: miter; stroke-miterlimit: 4; fill: rgb(251,165,54); fill-rule: evenodd; opacity: 0.8;"  cx="0" cy="0" r="47.0059" />
</g>
		<g transform="matrix(0.1640206609377625 0 0 0.1640206609377625 0.9140782848575064 -56.627348560332905)"  >
<circle style="stroke: none; stroke-width: 0; stroke-dasharray: none; stroke-linecap: butt; stroke-dashoffset: 0; stroke-linejoin: miter; stroke-miterlimit: 4; fill: rgb(255,83,98); fill-rule: evenodd; opacity: 0.7;"  cx="0" cy="0" r="47.0059" />
</g>
		<g transform="matrix(0.8863169950301366 0 0 0.8863169950301366 -25.328172179880866 -1.6932552024043588)"  >
<circle style="stroke: none; stroke-width: 0; stroke-dasharray: none; stroke-linecap: butt; stroke-dashoffset: 0; stroke-linejoin: miter; stroke-miterlimit: 4; fill: rgb(99,25,195); fill-rule: evenodd; opacity: 0.8;"  cx="0" cy="0" r="47.0059" />
</g>
		<g transform="matrix(0.6470430043256643 0 0 0.6470430043256643 13.674042016607682 31.322016071951435)"  >
<circle style="stroke: none; stroke-width: 0; stroke-dasharray: none; stroke-linecap: butt; stroke-dashoffset: 0; stroke-linejoin: miter; stroke-miterlimit: 4; fill: rgb(255,83,98); fill-rule: evenodd; opacity: 0.8;"  cx="0" cy="0" r="47.0059" />
</g>
		<g transform="matrix(0.07846229053274655 0 0 -0.07846229053274655 -76.90763257612397 11.670068884834874)"  >
<circle style="stroke: none; stroke-width: 0; stroke-dasharray: none; stroke-linecap: butt; stroke-dashoffset: 0; stroke-linejoin: miter; stroke-miterlimit: 4; fill: rgb(99,25,195); fill-rule: evenodd; opacity: 0.7;"  cx="0" cy="0" r="47.0059" />
</g>
		<g transform="matrix(0.08973911094761094 0 0 0.08973911094761093 55.15345252129921 21.98044018813328)"  >
<circle style="stroke: none; stroke-width: 0; stroke-dasharray: none; stroke-linecap: butt; stroke-dashoffset: 0; stroke-linejoin: miter; stroke-miterlimit: 4; fill: rgb(255,83,98); fill-rule: evenodd; opacity: 0.7;"  cx="0" cy="0" r="47.0059" />
</g>
		<g transform="matrix(0.19007688396989056 0 0 0.19007688396989056 71.66108815847704 6.423524467187805)"  >
<circle style="stroke: none; stroke-width: 0; stroke-dasharray: none; stroke-linecap: butt; stroke-dashoffset: 0; stroke-linejoin: miter; stroke-miterlimit: 4; fill: rgb(0,76,242); fill-rule: evenodd; opacity: 0.7;"  cx="0" cy="0" r="47.0059" />
</g>
		<g transform="matrix(0.09873329263926167 0 0 0.09873329263926167 -61.34997199317024 55.69043058397597)"  >
<circle style="stroke: none; stroke-width: 0; stroke-dasharray: none; stroke-linecap: butt; stroke-dashoffset: 0; stroke-linejoin: miter; stroke-miterlimit: 4; fill: rgb(251,165,54); fill-rule: evenodd; opacity: 0.7;"  cx="0" cy="0" r="47.0059" />
</g>
</g>
</g>
<g transform="matrix(0.8077801745715353 0 0 0.8077801745715353 254 207)"  >
<path style="stroke: none; stroke-width: 0; stroke-dasharray: none; stroke-linecap: butt; stroke-dashoffset: 0; stroke-linejoin: miter; stroke-miterlimit: 4; fill: rgb(255,255,255); fill-rule: evenodd; opacity: 1;"  transform=" translate(-50.0005, -49.999700000000004)" d="m 10.582 58.09 l -1.7734 4.7383 c 0.56641 -0.15234 1.1641 -0.23438 1.7773 -0.23438 h 12.859 l -7.9375 -0.58203 c -1.4375 -0.10547 -2.75 -0.75781 -3.6953 -1.7773 c -0.55859 -0.60156 -0.98438 -1.3281 -1.2344 -2.1445 z m -5.582 -36.098 l 34.566 -14.887 l 34.566 14.891 l -34.566 14.891 z m 69.598 2.6562 l -2.625 1.1289 v 18.766 c -2.2617 0.58203 -3.9297 2.6328 -3.9297 5.0781 c 0 2.8945 2.3477 5.2422 5.2422 5.2422 c 2.8945 0 5.2422 -2.3477 5.2422 -5.2422 c 0 -2.4414 -1.668 -4.4922 -3.9297 -5.0781 v -19.898 z m -13.812 5.9492 l -21.219 9.1406 l -21.219 -9.1406 v 14.012 c 0 2.7578 2.2539 5.0117 5.0117 5.0117 h 32.418 c 2.7578 0 5.0117 -2.2539 5.0117 -5.0117 v -14.012 z m 29.047 62.297 l 5.168 -12.531 c 0 -2.8438 -2.3242 -5.168 -5.168 -5.168 s -5.168 2.3242 -5.168 5.168 z m 0 -70.902 c 2.8438 0 5.168 2.3242 5.168 5.168 v 6.5391 c -1.3672 -1.043 -3.1875 -1.6875 -5.168 -1.6875 s -3.8008 0.64062 -5.168 1.6875 v -6.5391 c 0 -2.8438 2.3242 -5.168 5.168 -5.168 z m 5.168 54.473 c -1.2227 -1.6172 -3.1289 -2.5781 -5.168 -2.5781 c -2.0352 0 -3.9414 0.96094 -5.168 2.5781 c 0 -12.652 0.10156 -25.34 0.10156 -37.973 c 0 -1.0078 0.53125 -1.9414 1.3867 -2.6328 c 0.92969 -0.75391 2.2305 -1.2188 3.6797 -1.2188 s 2.75 0.46875 3.6797 1.2188 c 0.85547 0.69141 1.3867 1.6289 1.3867 2.6328 c 0 12.633 0.10156 25.32 0.10156 37.973 z m -79.395 -30.516 l 0.23828 0.015625 c 0.64062 3.5625 3.7734 6.2812 7.5156 6.2812 h 32.418 c 2.4258 0 4.5938 -1.1406 5.9961 -2.918 l 3.6484 0.29297 c 0 4.3438 3.5234 7.8672 7.8672 7.8672 c 0.65625 0 1.2891 -0.082031 1.8984 -0.23047 c -0.10547 2.6523 0.57812 5.3047 2.0312 7.957 l -61.609 -4.5156 c -2.168 -0.16016 -3.9531 -1.9219 -3.9531 -4.2734 v -6.2031 c 0 -2.3516 1.7852 -4.4336 3.9531 -4.2734 z m 63.062 -2.0664 c -0.4375 -0.41016 -0.92188 -0.76953 -1.4453 -1.0742 v -6.6289 l 3.1758 0.16016 z m -9.3203 -8.1055 l -5.9375 -0.30469 v 9.1367 c 0 0.75781 -0.11328 1.4922 -0.32031 2.1836 l 2.7773 0.20312 c 0.62109 -1.7578 1.8555 -3.25 3.4805 -4.1914 v -7.0312 z m -53.625 3.5469 l -1.5352 4.1094 c 0.48828 -0.10156 1.0039 -0.14062 1.5352 -0.10938 z m 9.2109 33.266 h 12.402 v 20.301 l -6.1992 -4.5156 l -6.1992 4.5156 v -20.301 z m -14.344 -7.3789 c -2.3516 0 -4.2734 1.9219 -4.2734 4.2734 v 6.2031 c 0 2.3516 1.9219 4.2734 4.2734 4.2734 h 4.0039 v -14.754 h -4.0039 z m 6.6289 0 v 14.754 h 5.0898 v -10 h 17.652 v 10 h 37.254 c -2.9102 -4.918 -2.9766 -9.8359 0 -14.754 l -59.996 0.007812 z" stroke-linecap="round" />
</g>
</svg>