<svg width="62" height="37" viewBox="0 0 62 37" fill="none" xmlns="http://www.w3.org/2000/svg">
<path d="M59.3125 8.65625C61.4688 9.3125 61.4688 12.2188 59.3125 12.875L33.1562 20.9375C31.2812 21.5 29.5938 21.2188 28.75 20.9375L10.4688 15.3125C9.25 16.0625 8.59375 17.375 8.5 18.7812C9.34375 19.25 10 20.1875 10 21.2188C10 22.25 9.4375 23.0938 8.6875 23.6562L11.0312 34.4375C11.2188 35.375 10.5625 36.2188 9.625 36.2188H4.28125C3.34375 36.2188 2.6875 35.375 2.875 34.4375L5.21875 23.6562C4.46875 23.0938 4 22.25 4 21.2188C4 20.1875 4.5625 19.25 5.5 18.6875C5.59375 17.0938 6.15625 15.5 7.1875 14.2812L2.59375 12.875C0.4375 12.2188 0.4375 9.3125 2.59375 8.65625L28.75 0.59375C30.1562 0.125 31.75 0.125 33.1562 0.59375L59.3125 8.65625ZM34 23.8438L47.5938 19.625L49 30.2188C49 33.5938 40.9375 36.2188 31 36.2188C20.9688 36.2188 13 33.5938 13 30.2188L14.3125 19.625L27.9062 23.8438C29.0312 24.2188 31.375 24.5938 34 23.8438Z" fill="#EE1B7A"/>
</svg>
