<svg width="48" height="49" viewBox="0 0 48 49" fill="none" xmlns="http://www.w3.org/2000/svg">
<path d="M32.5 15.2188H15.9062C17.3125 6.875 20.5 0.96875 24.25 0.96875C27.9062 0.96875 31.1875 6.875 32.5 15.2188ZM15.25 24.2188C15.25 22.1562 15.3438 20.1875 15.5312 18.2188H32.875C33.0625 20.1875 33.1562 22.1562 33.1562 24.2188C33.1562 26.375 33.0625 28.3438 32.875 30.2188H15.5312C15.3438 28.3438 15.25 26.375 15.25 24.2188ZM45.625 15.2188H35.5C34.6562 9.96875 33.1562 5.1875 30.8125 2C37.5625 3.96875 43 8.9375 45.625 15.2188ZM17.5938 2C15.25 5.1875 13.75 9.96875 12.9062 15.2188H2.78125C5.40625 8.9375 10.8438 3.96875 17.5938 2ZM46.6562 18.2188C47.125 20.1875 47.4062 22.1562 47.4062 24.2188C47.4062 26.375 47.125 28.3438 46.6562 30.2188H35.875C36.0625 28.25 36.25 26.2812 36.25 24.2188C36.25 22.25 36.0625 20.1875 35.875 18.2188H46.6562ZM12.25 24.2188C12.25 26.2812 12.3438 28.25 12.5312 30.2188H1.75C1.28125 28.3438 1 26.375 1 24.2188C1 22.1562 1.28125 20.1875 1.75 18.2188H12.5312C12.3438 20.1875 12.25 22.25 12.25 24.2188ZM15.9062 33.2188H32.5C31.1875 41.6562 27.9062 47.4688 24.25 47.4688C20.5 47.4688 17.3125 41.6562 15.9062 33.2188ZM30.8125 46.5312C33.1562 43.3438 34.75 38.5625 35.5 33.2188H45.625C43 39.5938 37.5625 44.5625 30.8125 46.5312ZM2.78125 33.2188H12.9062C13.75 38.5625 15.25 43.3438 17.5938 46.5312C10.8438 44.5625 5.40625 39.5938 2.78125 33.2188Z" fill="#EE1B7A"/>
</svg>
