<svg width="55" height="43" viewBox="0 0 55 43" fill="none" xmlns="http://www.w3.org/2000/svg">
<path d="M27.25 11.1875C27.4375 11 27.7188 10.9062 28 10.9062C28.1875 10.9062 28.4688 11 28.6562 11.1875L46 25.3438V40.7188C46 41.5625 45.25 42.2188 44.5 42.2188H33.9062C33.1562 42.2188 32.4062 41.5625 32.4062 40.7188V31.7188C32.4062 30.9688 31.75 30.2188 30.9062 30.2188H24.9062C24.1562 30.2188 23.4062 30.9688 23.4062 31.7188V40.7188C23.4062 41.5625 22.75 42.2188 22 42.2188H11.5C10.6562 42.2188 10 41.5625 10 40.7188V25.4375L27.25 11.1875ZM54.5312 20.8438C54.8125 21.0312 55 21.4062 55 21.6875C55 21.9688 54.9062 22.25 54.7188 22.4375L52.2812 25.3438C52.0938 25.625 51.8125 25.7188 51.4375 25.7188C51.1562 25.7188 50.875 25.625 50.6875 25.4375L28.6562 7.34375C28.4688 7.15625 28.1875 7.0625 28 7.0625C27.7188 7.0625 27.4375 7.15625 27.25 7.34375L5.21875 25.4375C5.03125 25.625 4.75 25.7188 4.46875 25.7188C4.09375 25.7188 3.8125 25.625 3.625 25.3438L1.1875 22.4375C1.09375 22.25 0.90625 21.9688 0.90625 21.6875C0.90625 21.4062 1.09375 21.0312 1.375 20.8438L25.0938 1.25C25.8438 0.6875 26.875 0.3125 28 0.3125C29.0312 0.3125 30.0625 0.6875 30.8125 1.25L39.25 8.1875V1.4375C39.25 0.78125 39.7188 0.3125 40.375 0.3125H45.625C46.1875 0.3125 46.75 0.78125 46.75 1.4375V14.375L54.5312 20.8438Z" fill="#EE1B7A"/>
</svg>
