<svg width="54" height="43" viewBox="0 0 54 43" fill="none" xmlns="http://www.w3.org/2000/svg">
<path d="M50.8125 0.3125C52.5 0.21875 54 1.53125 53.9062 3.125V34.8125C53.9062 36.3125 52.6875 37.625 51.0938 37.7188C46.5 37.9062 37.125 38.8438 30.6562 42.125C29.625 42.5938 28.4062 41.9375 28.4062 40.8125V6.6875C28.4062 6.21875 28.6875 5.75 29.1562 5.46875C35.4375 1.625 45.6562 0.59375 50.8125 0.3125ZM24.75 5.46875C25.2188 5.75 25.5 6.21875 25.5 6.6875V40.8125C25.5 41.9375 24.2812 42.5938 23.25 42.125C16.7812 38.8438 7.40625 37.9062 2.8125 37.7188C1.21875 37.625 0 36.3125 0 34.8125V3.125C0 1.53125 1.40625 0.21875 3.09375 0.3125C8.25 0.59375 18.4688 1.625 24.75 5.46875Z" fill="#EE1B7A"/>
</svg>
