<svg width="1440" height="846" viewBox="0 0 1440 846" fill="none" xmlns="http://www.w3.org/2000/svg">
<mask id="mask0_217_16410" style="mask-type:luminance" maskUnits="userSpaceOnUse" x="0" y="0" width="1440" height="846">
<path d="M1440 0.65625H0V845.185H1440V0.65625Z" fill="white"/>
</mask>
<g mask="url(#mask0_217_16410)">
<g opacity="0.88">
<path d="M1440 0.65625H0V845.185H1440V0.65625Z" fill="url(#paint0_linear_217_16410)"/>
</g>
<g opacity="0.88">
<path d="M1440 618.9C1198.5 562.529 1124 845.857 886.5 809.093C813.113 797.733 756 760.514 633 664.729C510 568.946 432.382 570.723 238 587.277C43.6178 603.831 8.00025 483.616 0 464.301V0.65625H1440V618.9Z" fill="#FDFDFD"/>
</g>
<g opacity="0.11" filter="url(#filter0_f_217_16410)">
<path fill-rule="evenodd" clip-rule="evenodd" d="M288.673 162.769L283.012 166.874C282.113 167.526 281.78 169.023 282.266 170.219L290.782 191.167C292.066 194.324 291.185 198.276 288.814 199.994C286.444 201.713 283.482 200.547 282.199 197.391L273.683 176.443C273.196 175.247 272.074 174.805 271.175 175.456L265.514 179.561C264.616 180.212 264.282 181.71 264.768 182.906L273.106 203.414C277.055 213.126 286.167 216.714 293.461 211.425C300.755 206.137 303.466 193.976 299.517 184.264L291.18 163.756C290.901 163.069 290.412 162.631 289.876 162.506C289.478 162.413 289.055 162.492 288.673 162.769Z" fill="url(#paint1_linear_217_16410)"/>
<g filter="url(#filter1_f_217_16410)">
<path fill-rule="evenodd" clip-rule="evenodd" d="M284.132 175.678L293.147 168.891L290.578 162.326C290.093 161.087 288.963 160.635 288.055 161.319L282.33 165.629C281.422 166.313 281.079 167.873 281.564 169.113L284.132 175.678Z" fill="url(#paint2_linear_217_16410)"/>
</g>
<g filter="url(#filter2_f_217_16410)">
<path fill-rule="evenodd" clip-rule="evenodd" d="M266.894 188.881L275.908 182.094L273.34 175.53C272.855 174.289 271.726 173.839 270.817 174.522L265.093 178.832C264.184 179.516 263.841 181.076 264.325 182.316L266.894 188.881Z" fill="url(#paint3_linear_217_16410)"/>
</g>
<g filter="url(#filter3_f_217_16410)">
<path fill-rule="evenodd" clip-rule="evenodd" d="M264.267 146.283L268.037 163.202C268.224 164.039 268.938 164.473 269.549 164.121L272.037 162.691C272.557 162.393 273.171 162.63 273.483 163.25L278.373 172.949C278.472 173.146 278.706 173.002 278.648 172.779L274.514 156.786C274.314 156.011 273.655 155.605 273.069 155.896L270.918 156.962C270.4 157.219 269.811 156.961 269.514 156.347L264.577 146.107C264.471 145.887 264.212 146.035 264.267 146.283Z" fill="url(#paint4_linear_217_16410)"/>
</g>
</g>
<g opacity="0.1" filter="url(#filter4_f_217_16410)">
<path fill-rule="evenodd" clip-rule="evenodd" d="M206.35 437.256C205.923 438.169 206.201 439.4 206.941 439.937L244.12 466.876C244.86 467.413 245.777 467.047 246.108 466.065C251.165 451.079 247.114 433.421 236.584 425.792C233.52 423.572 230.23 422.435 226.944 422.283C218.943 421.914 210.97 427.383 206.35 437.256ZM236.388 450.467L221.379 439.593C220.659 439.07 220.485 437.818 221.019 437.049C223.506 433.474 228.288 432.895 232.515 435.959C236.743 439.022 239.015 444.711 238.164 449.471C238.029 450.234 237.51 450.702 236.956 450.676C236.766 450.667 236.572 450.601 236.388 450.467Z" fill="url(#paint5_linear_217_16410)"/>
<path fill-rule="evenodd" clip-rule="evenodd" d="M212.918 440.733L212.947 440.753C213.26 440.971 213.378 441.477 213.209 441.883L212.156 444.415L210.99 443.603L212.045 441.072C212.213 440.665 212.604 440.514 212.918 440.733ZM222.578 447.464C222.892 447.683 223.01 448.19 222.841 448.595L221.787 451.127L220.622 450.315L221.675 447.782C221.844 447.377 222.236 447.226 222.55 447.444L222.578 447.464ZM241.049 464.55L239.884 463.737L240.938 461.205C241.107 460.8 241.499 460.649 241.812 460.868L241.841 460.886C242.155 461.105 242.272 461.612 242.104 462.017L241.049 464.55ZM232.472 455.307C232.641 454.901 232.523 454.394 232.209 454.176L232.181 454.156C231.867 453.937 231.476 454.088 231.307 454.494L230.252 457.026L231.418 457.838L232.472 455.307Z" fill="#FFC6F7"/>
</g>
<g opacity="0.1" filter="url(#filter5_f_217_16410)">
<g filter="url(#filter6_f_217_16410)">
<g opacity="0.6">
<path fill-rule="evenodd" clip-rule="evenodd" d="M1153.88 206.171L1147.32 198.251L1159.69 181.594L1157.99 204.084C1157.79 206.686 1155.34 207.931 1153.88 206.171Z" fill="url(#paint6_linear_217_16410)"/>
</g>
</g>
<g filter="url(#filter7_f_217_16410)">
<g opacity="0.6">
<path fill-rule="evenodd" clip-rule="evenodd" d="M1131.24 175.757L1137.69 184.438L1148.9 167.734L1132.41 170.247C1130.5 170.538 1129.8 173.828 1131.24 175.757Z" fill="url(#paint7_linear_217_16410)"/>
</g>
</g>
<g filter="url(#filter8_f_217_16410)">
<path fill-rule="evenodd" clip-rule="evenodd" d="M1134.37 194.835L1141.13 203.542C1141.66 204.218 1142.5 204.041 1142.82 203.187L1146.3 198.011L1138.1 187.703L1134.53 192.511C1133.92 193.003 1133.84 194.159 1134.37 194.835Z" fill="url(#paint8_linear_217_16410)"/>
</g>
<path fill-rule="evenodd" clip-rule="evenodd" d="M1167.15 174.705L1165.57 176.884L1149.69 198.849C1148.93 199.907 1147.66 199.966 1146.86 198.981L1137.32 187.243C1136.52 186.259 1136.49 184.602 1137.25 183.545L1153.13 161.581L1154.71 159.4C1158.79 153.759 1164.85 152.055 1170.07 154.411C1170.12 154.583 1170.18 154.758 1170.23 154.932C1172.13 161.483 1171.12 169.209 1167.15 174.705Z" fill="url(#paint9_linear_217_16410)"/>
<g opacity="0.2">
<path fill-rule="evenodd" clip-rule="evenodd" d="M1157.85 163.945C1155.73 166.057 1155.79 170.146 1157.97 172.044C1159.3 173.193 1161.1 173.103 1162.39 171.825C1164.5 169.713 1164.44 165.625 1162.26 163.726C1160.94 162.578 1159.13 162.667 1157.85 163.945Z" fill="#FFBCF6"/>
</g>
</g>
<g opacity="0.1" filter="url(#filter9_f_217_16410)">
<path fill-rule="evenodd" clip-rule="evenodd" d="M1214.43 429.427C1214.17 430.258 1214.37 431.188 1214.88 431.731L1212.21 440.058C1211.87 441.126 1211.12 441.892 1210.23 442.037C1205.4 442.837 1201.01 446.876 1199.01 453.133C1196.03 462.443 1199.44 473.126 1206.63 476.976C1213.82 480.821 1222.02 476.415 1225 467.113C1227 460.856 1226.11 453.98 1223.13 448.976C1222.59 448.063 1222.48 446.834 1222.82 445.768L1225.49 437.442C1226.15 437.525 1226.79 437.05 1227.06 436.22C1227.39 435.201 1227.01 434.032 1226.23 433.61L1216.45 428.348C1216.25 428.245 1216.06 428.195 1215.86 428.195C1215.25 428.195 1214.68 428.659 1214.43 429.427Z" fill="url(#paint10_linear_217_16410)"/>
<g filter="url(#filter10_f_217_16410)">
<path fill-rule="evenodd" clip-rule="evenodd" d="M1198.31 454.454C1195.84 463.029 1199.04 472.684 1205.65 476.56C1213.05 480.902 1221.78 476.617 1224.88 467.287C1225.99 463.942 1226.22 460.419 1225.71 457.112C1225.46 455.541 1224.81 454.066 1223.76 453.135C1220.35 450.089 1217.23 450.856 1211.78 452.197C1208.88 452.911 1203.32 451.451 1202.97 446.43C1200.92 448.421 1199.27 451.143 1198.31 454.454Z" fill="url(#paint11_linear_217_16410)"/>
</g>
<path fill-rule="evenodd" clip-rule="evenodd" d="M1209.48 458.962C1209.2 459.855 1209.52 460.878 1210.2 461.249C1210.88 461.619 1211.65 461.196 1211.94 460.304C1212.22 459.411 1211.9 458.387 1211.22 458.016C1210.54 457.647 1209.76 458.07 1209.48 458.962Z" fill="#CA64D4"/>
<path fill-rule="evenodd" clip-rule="evenodd" d="M1205.63 464.321C1205.44 464.916 1205.65 465.599 1206.11 465.846C1206.56 466.093 1207.08 465.81 1207.26 465.215C1207.45 464.62 1207.24 463.938 1206.78 463.691C1206.33 463.444 1205.81 463.726 1205.63 464.321Z" fill="#CA64D4"/>
<path fill-rule="evenodd" clip-rule="evenodd" d="M1232.39 418.923C1232.84 417.081 1232.06 415.114 1230.66 414.531C1229.26 413.948 1227.77 414.969 1227.33 416.811C1226.88 418.655 1227.66 420.62 1229.06 421.203C1230.46 421.786 1231.95 420.766 1232.39 418.923Z" fill="url(#paint12_linear_217_16410)"/>
<path fill-rule="evenodd" clip-rule="evenodd" d="M1222.61 423.061C1221.88 423.017 1221.31 422.199 1221.35 421.234C1221.38 420.268 1222 419.521 1222.73 419.564C1223.47 419.608 1224.03 420.427 1224 421.391C1223.97 422.358 1223.35 423.105 1222.61 423.061Z" fill="url(#paint13_linear_217_16410)"/>
<path fill-rule="evenodd" clip-rule="evenodd" d="M1224.58 426.702C1224.24 426.246 1223.68 426.245 1223.33 426.7C1222.98 427.155 1222.98 427.893 1223.33 428.349C1223.67 428.806 1224.23 428.807 1224.58 428.352C1224.93 427.897 1224.93 427.158 1224.58 426.702Z" fill="url(#paint14_linear_217_16410)"/>
</g>
</g>
<defs>
<filter id="filter0_f_217_16410" x="259.021" y="140.915" width="47.3959" height="78.0365" filterUnits="userSpaceOnUse" color-interpolation-filters="sRGB">
<feFlood flood-opacity="0" result="BackgroundImageFix"/>
<feBlend mode="normal" in="SourceGraphic" in2="BackgroundImageFix" result="shape"/>
<feGaussianBlur stdDeviation="2.54232" result="effect1_foregroundBlur_217_16410"/>
</filter>
<filter id="filter1_f_217_16410" x="278.293" y="157.949" width="17.9043" height="20.7813" filterUnits="userSpaceOnUse" color-interpolation-filters="sRGB">
<feFlood flood-opacity="0" result="BackgroundImageFix"/>
<feBlend mode="normal" in="SourceGraphic" in2="BackgroundImageFix" result="shape"/>
<feGaussianBlur stdDeviation="1.52539" result="effect1_foregroundBlur_217_16410"/>
</filter>
<filter id="filter2_f_217_16410" x="261.055" y="171.152" width="17.9043" height="20.7813" filterUnits="userSpaceOnUse" color-interpolation-filters="sRGB">
<feFlood flood-opacity="0" result="BackgroundImageFix"/>
<feBlend mode="normal" in="SourceGraphic" in2="BackgroundImageFix" result="shape"/>
<feGaussianBlur stdDeviation="1.52539" result="effect1_foregroundBlur_217_16410"/>
</filter>
<filter id="filter3_f_217_16410" x="261.209" y="142.949" width="20.4981" height="33.1445" filterUnits="userSpaceOnUse" color-interpolation-filters="sRGB">
<feFlood flood-opacity="0" result="BackgroundImageFix"/>
<feBlend mode="normal" in="SourceGraphic" in2="BackgroundImageFix" result="shape"/>
<feGaussianBlur stdDeviation="1.52539" result="effect1_foregroundBlur_217_16410"/>
</filter>
<filter id="filter4_f_217_16410" x="201.064" y="417.181" width="52.2943" height="55.0287" filterUnits="userSpaceOnUse" color-interpolation-filters="sRGB">
<feFlood flood-opacity="0" result="BackgroundImageFix"/>
<feBlend mode="normal" in="SourceGraphic" in2="BackgroundImageFix" result="shape"/>
<feGaussianBlur stdDeviation="2.54232" result="effect1_foregroundBlur_217_16410"/>
</filter>
<filter id="filter5_f_217_16410" x="1124.37" y="147.281" width="52.8867" height="65.8125" filterUnits="userSpaceOnUse" color-interpolation-filters="sRGB">
<feFlood flood-opacity="0" result="BackgroundImageFix"/>
<feBlend mode="normal" in="SourceGraphic" in2="BackgroundImageFix" result="shape"/>
<feGaussianBlur stdDeviation="3.05079" result="effect1_foregroundBlur_217_16410"/>
</filter>
<filter id="filter6_f_217_16410" x="1143.25" y="177.526" width="20.5046" height="33.5339" filterUnits="userSpaceOnUse" color-interpolation-filters="sRGB">
<feFlood flood-opacity="0" result="BackgroundImageFix"/>
<feBlend mode="normal" in="SourceGraphic" in2="BackgroundImageFix" result="shape"/>
<feGaussianBlur stdDeviation="2.03386" result="effect1_foregroundBlur_217_16410"/>
</filter>
<filter id="filter7_f_217_16410" x="1126.4" y="163.667" width="26.5632" height="24.8386" filterUnits="userSpaceOnUse" color-interpolation-filters="sRGB">
<feFlood flood-opacity="0" result="BackgroundImageFix"/>
<feBlend mode="normal" in="SourceGraphic" in2="BackgroundImageFix" result="shape"/>
<feGaussianBlur stdDeviation="2.03386" result="effect1_foregroundBlur_217_16410"/>
</filter>
<filter id="filter8_f_217_16410" x="1129.95" y="183.635" width="20.4167" height="24.3893" filterUnits="userSpaceOnUse" color-interpolation-filters="sRGB">
<feFlood flood-opacity="0" result="BackgroundImageFix"/>
<feBlend mode="normal" in="SourceGraphic" in2="BackgroundImageFix" result="shape"/>
<feGaussianBlur stdDeviation="2.03386" result="effect1_foregroundBlur_217_16410"/>
</filter>
<filter id="filter9_f_217_16410" x="1192.4" y="409.283" width="45.2064" height="74.1693" filterUnits="userSpaceOnUse" color-interpolation-filters="sRGB">
<feFlood flood-opacity="0" result="BackgroundImageFix"/>
<feBlend mode="normal" in="SourceGraphic" in2="BackgroundImageFix" result="shape"/>
<feGaussianBlur stdDeviation="2.54232" result="effect1_foregroundBlur_217_16410"/>
</filter>
<filter id="filter10_f_217_16410" x="1194.43" y="443.379" width="34.5879" height="37.9336" filterUnits="userSpaceOnUse" color-interpolation-filters="sRGB">
<feFlood flood-opacity="0" result="BackgroundImageFix"/>
<feBlend mode="normal" in="SourceGraphic" in2="BackgroundImageFix" result="shape"/>
<feGaussianBlur stdDeviation="1.52539" result="effect1_foregroundBlur_217_16410"/>
</filter>
<linearGradient id="paint0_linear_217_16410" x1="818.704" y1="965.748" x2="919.014" y2="98.8354" gradientUnits="userSpaceOnUse">
<stop stop-color="#FE5A82" stop-opacity="0.98"/>
<stop offset="1" stop-color="#600034"/>
</linearGradient>
<linearGradient id="paint1_linear_217_16410" x1="308.533" y1="196.285" x2="279.863" y2="168.616" gradientUnits="userSpaceOnUse">
<stop stop-color="#A976FF"/>
<stop offset="1" stop-color="#FEA2CF"/>
</linearGradient>
<linearGradient id="paint2_linear_217_16410" x1="296.602" y1="183.782" x2="313.537" y2="156.398" gradientUnits="userSpaceOnUse">
<stop stop-color="#D6597E"/>
<stop offset="1" stop-color="#D75A7F"/>
</linearGradient>
<linearGradient id="paint3_linear_217_16410" x1="279.364" y1="196.985" x2="296.299" y2="169.602" gradientUnits="userSpaceOnUse">
<stop stop-color="#FF8C7B"/>
<stop offset="1" stop-color="#FFF29B"/>
</linearGradient>
<linearGradient id="paint4_linear_217_16410" x1="285.534" y1="182.475" x2="318.594" y2="147.082" gradientUnits="userSpaceOnUse">
<stop stop-color="#FF8C7B"/>
<stop offset="1" stop-color="#FFF29B"/>
</linearGradient>
<linearGradient id="paint5_linear_217_16410" x1="238.539" y1="477.644" x2="255.274" y2="442.974" gradientUnits="userSpaceOnUse">
<stop stop-color="#A976FF"/>
<stop offset="1" stop-color="#FEA2CF"/>
</linearGradient>
<linearGradient id="paint6_linear_217_16410" x1="1137.09" y1="182.403" x2="1173.59" y2="169.021" gradientUnits="userSpaceOnUse">
<stop stop-color="#FF8C7B"/>
<stop offset="1" stop-color="#FFF29B"/>
</linearGradient>
<linearGradient id="paint7_linear_217_16410" x1="1122.03" y1="167.71" x2="1147.83" y2="138.241" gradientUnits="userSpaceOnUse">
<stop stop-color="#FF8C7B"/>
<stop offset="1" stop-color="#FFF29B"/>
</linearGradient>
<linearGradient id="paint8_linear_217_16410" x1="1127.67" y1="184.697" x2="1150.98" y2="172.638" gradientUnits="userSpaceOnUse">
<stop stop-color="#FF8C7B"/>
<stop offset="1" stop-color="#FFF29B"/>
</linearGradient>
<linearGradient id="paint9_linear_217_16410" x1="1127.86" y1="184.655" x2="1150.49" y2="147.388" gradientUnits="userSpaceOnUse">
<stop stop-color="#A976FF"/>
<stop offset="1" stop-color="#FEA2CF"/>
</linearGradient>
<linearGradient id="paint10_linear_217_16410" x1="1220.92" y1="490.689" x2="1253.45" y2="462.912" gradientUnits="userSpaceOnUse">
<stop stop-color="#A976FF"/>
<stop offset="1" stop-color="#FEA2CF"/>
</linearGradient>
<linearGradient id="paint11_linear_217_16410" x1="1238.91" y1="488.69" x2="1255.65" y2="428.556" gradientUnits="userSpaceOnUse">
<stop stop-color="#DD5D82"/>
<stop offset="1" stop-color="#DC5C81"/>
</linearGradient>
<linearGradient id="paint12_linear_217_16410" x1="1231.38" y1="423.088" x2="1235.25" y2="417.473" gradientUnits="userSpaceOnUse">
<stop stop-color="#A976FF"/>
<stop offset="1" stop-color="#FEA2CF"/>
</linearGradient>
<linearGradient id="paint13_linear_217_16410" x1="1223.43" y1="423.922" x2="1225.37" y2="421.115" gradientUnits="userSpaceOnUse">
<stop stop-color="#A976FF"/>
<stop offset="1" stop-color="#FEA2CF"/>
</linearGradient>
<linearGradient id="paint14_linear_217_16410" x1="1224.46" y1="429.266" x2="1225.75" y2="427.395" gradientUnits="userSpaceOnUse">
<stop stop-color="#A976FF"/>
<stop offset="1" stop-color="#FEA2CF"/>
</linearGradient>
</defs>
</svg>
